<svg width="111" height="71" viewBox="0 0 111 71" fill="none" xmlns="http://www.w3.org/2000/svg">
<path d="M76.6535 0.404018V44.8574H69.1291V25.2041H47.2614L47.1829 44.8574H39.7188V0.404018H47.1829V17.941H69.1291V0.404018H76.6535Z" fill="#100F0D"/>
<path d="M38.3484 12.7266C37.3504 9.98856 35.9653 7.70737 34.1927 5.88036C32.42 4.05334 30.321 2.68548 27.8958 1.76968C25.4729 0.858467 22.8526 0.401802 20.0422 0.401802H1.21484V7.35277H8.70225H13.0406H19.9717C37.0916 7.35277 34.6654 37.6427 21.2242 37.6427H8.70225V26.0847H1.21484V44.8516H20.0422C23.3832 44.8516 26.2851 44.2825 28.7526 43.1392C31.218 41.9986 33.2748 40.4324 34.9253 38.4404C36.5757 36.4485 37.8084 34.0811 38.6231 31.3429C38.6605 31.2211 38.6959 31.0992 38.7286 30.9747V13.8745C38.6113 13.4823 38.4845 13.0996 38.3484 12.7266Z" fill="#100F0D"/>
<path d="M1.19531 61.1914V57.1554H1.99919L2.95446 60.0131C3.04255 60.2792 3.10681 60.4784 3.14712 60.6105C3.19297 60.4637 3.26462 60.248 3.36193 59.9635L4.32826 57.1554H5.04672V61.1914H4.53183V57.8135L3.35915 61.1914H2.87733L1.71011 57.7557V61.1914H1.19531Z" fill="#231F20"/>
<path d="M7.98869 59.5341H9.35701L8.93578 58.4162C8.8073 58.0768 8.71178 57.7978 8.6494 57.5795C8.59795 57.8382 8.52555 58.0953 8.4319 58.3502L7.98869 59.5341ZM6.82422 61.1914L8.3741 57.1554H8.94947L10.6013 61.1914H9.99291L9.5221 59.9691H7.83461L7.39122 61.1914H6.82422Z" fill="#231F20"/>
<path d="M12.9285 58.9367H14.0765C14.3207 58.9367 14.5115 58.9114 14.6492 58.8612C14.7869 58.8104 14.8915 58.7299 14.9631 58.6186C15.0346 58.5076 15.0704 58.387 15.0704 58.2567C15.0704 58.0659 15.0011 57.9088 14.8626 57.7857C14.724 57.6629 14.5051 57.6015 14.206 57.6015H12.9285V58.9367ZM12.3945 61.1914V57.1554H14.184C14.5437 57.1554 14.8172 57.1916 15.0044 57.2641C15.1916 57.3367 15.3412 57.4648 15.4531 57.6481C15.565 57.8317 15.621 58.0345 15.621 58.2567C15.621 58.5428 15.5283 58.7843 15.343 58.9807C15.1576 59.1773 14.8713 59.3017 14.4841 59.3552C14.6255 59.4232 14.7327 59.49 14.8062 59.556C14.9621 59.6993 15.1099 59.8781 15.2494 60.0928L15.9513 61.1914H15.2797L14.7456 60.3518C14.5896 60.1092 14.4611 59.9239 14.3601 59.7956C14.2592 59.6671 14.1688 59.5771 14.0889 59.5258C14.0091 59.4745 13.928 59.4387 13.8454 59.4184C13.7849 59.4053 13.6857 59.3993 13.5481 59.3993H12.9285V61.1914H12.3945Z" fill="#231F20"/>
<path d="M18.8524 61.1914V59.4818L17.2969 57.1554H17.9467L18.7422 58.3724C18.8891 58.5997 19.026 58.8275 19.1525 59.0551C19.2736 58.844 19.4204 58.6064 19.593 58.3419L20.3747 57.1554H20.997L19.3865 59.4818V61.1914H18.8524Z" fill="#231F20"/>
<path d="M22.8125 61.1914V57.1554H23.3465V60.7152H25.3342V61.1914H22.8125Z" fill="#231F20"/>
<path d="M28.0512 59.5341H29.4195L28.9983 58.4162C28.8698 58.0768 28.7742 57.7978 28.712 57.5795C28.6605 57.8382 28.5881 58.0953 28.4943 58.3502L28.0512 59.5341ZM26.8867 61.1914L28.4367 57.1554H29.012L30.6639 61.1914H30.0554L29.5845 59.9691H27.8969L27.4537 61.1914H26.8867Z" fill="#231F20"/>
<path d="M32.4453 61.1914V57.1554H32.9933L35.1133 60.3242V57.1554H35.6251V61.1914H35.0773L32.9575 58.0197V61.1914H32.4453Z" fill="#231F20"/>
<path d="M38.4129 60.7152H39.2745C39.5407 60.7152 39.7496 60.6901 39.901 60.6408C40.0523 60.5912 40.1729 60.5215 40.2629 60.4314C40.3895 60.3049 40.4881 60.1346 40.5587 59.921C40.6296 59.7074 40.6648 59.4479 40.6648 59.143C40.6648 58.7211 40.5955 58.3967 40.4571 58.1696C40.3184 57.9433 40.1499 57.7913 39.9518 57.7143C39.8087 57.6591 39.5784 57.6316 39.2607 57.6316H38.4129V60.7152ZM37.8789 61.1914V57.1554H39.2692C39.5828 57.1554 39.8223 57.1747 39.9876 57.2132C40.2189 57.2665 40.4161 57.3627 40.5794 57.5024C40.7923 57.6821 40.9514 57.9119 41.0571 58.1918C41.1626 58.4719 41.2153 58.7915 41.2153 59.1513C41.2153 59.4578 41.1797 59.7297 41.1081 59.9662C41.0365 60.2029 40.9447 60.3991 40.8327 60.554C40.7207 60.7093 40.5984 60.831 40.4653 60.9203C40.332 61.0091 40.1716 61.0767 39.9834 61.1225C39.7953 61.1682 39.5792 61.1914 39.335 61.1914H37.8789Z" fill="#231F20"/>
<path d="M46.7723 60.7152H47.6339C47.8999 60.7152 48.1089 60.6901 48.2602 60.6408C48.4117 60.5912 48.5323 60.5215 48.6223 60.4314C48.7488 60.3049 48.8476 60.1346 48.9181 59.921C48.9888 59.7074 49.0242 59.4479 49.0242 59.143C49.0242 58.7211 48.9549 58.3967 48.8164 58.1696C48.6778 57.9433 48.5093 57.7913 48.3111 57.7143C48.1681 57.6591 47.9378 57.6316 47.6201 57.6316H46.7723V60.7152ZM46.2383 61.1914V57.1554H47.6284C47.9422 57.1554 48.1817 57.1747 48.3469 57.2132C48.5781 57.2665 48.7755 57.3627 48.9388 57.5024C49.1515 57.6821 49.311 57.9119 49.4165 58.1918C49.522 58.4719 49.5747 58.7915 49.5747 59.1513C49.5747 59.4578 49.539 59.7297 49.4674 59.9662C49.3958 60.2029 49.3041 60.3991 49.1921 60.554C49.0801 60.7093 48.9577 60.831 48.8247 60.9203C48.6914 61.0091 48.531 61.0767 48.3427 61.1225C48.1547 61.1682 47.9385 61.1914 47.6944 61.1914H46.2383Z" fill="#231F20"/>
<path d="M51.6797 61.1914V57.1554H54.5977V57.6316H52.2137V58.8679H54.4464V59.3414H52.2137V60.7152H54.6915V61.1914H51.6797Z" fill="#231F20"/>
<path d="M57.3194 59.0743H58.3627C58.7077 59.0743 58.9526 59.0102 59.0979 58.8815C59.2427 58.7532 59.3152 58.5724 59.3152 58.3394C59.3152 58.1702 59.2726 58.0256 59.1873 57.9056C59.1018 57.7855 58.9896 57.706 58.85 57.6674C58.76 57.6434 58.5942 57.6316 58.3516 57.6316H57.3194V59.0743ZM56.7852 61.1914V57.1554H58.3077C58.5756 57.1554 58.7803 57.1682 58.9216 57.1938C59.1198 57.2268 59.286 57.2898 59.4202 57.3825C59.5538 57.4754 59.6616 57.6051 59.7434 57.7721C59.8249 57.9393 59.8661 58.1225 59.8661 58.3228C59.8661 58.6661 59.7566 58.9563 59.5385 59.194C59.3198 59.4316 58.9254 59.5507 58.3545 59.5507H57.3194V61.1914H56.7852Z" fill="#231F20"/>
<path d="M62.2075 59.5341H63.5757L63.1543 58.4162C63.0262 58.0768 62.9305 57.7978 62.8681 57.5795C62.8169 57.8382 62.7444 58.0953 62.6507 58.3502L62.2075 59.5341ZM61.043 61.1914L62.5929 57.1554H63.1685L64.8203 61.1914H64.2118L63.741 59.9691H62.0532L61.6101 61.1914H61.043Z" fill="#231F20"/>
<path d="M67.1475 58.9367H68.2955C68.5395 58.9367 68.7304 58.9114 68.8682 58.8612C69.0057 58.8104 69.1104 58.7299 69.1819 58.6186C69.2537 58.5076 69.2895 58.387 69.2895 58.2567C69.2895 58.0659 69.22 57.9088 69.0815 57.7857C68.9429 57.6629 68.7239 57.6015 68.4248 57.6015H67.1475V58.9367ZM66.6133 61.1914V57.1554H68.403C68.7625 57.1554 69.0361 57.1916 69.2234 57.2641C69.4103 57.3367 69.5602 57.4648 69.6718 57.6481C69.784 57.8317 69.8398 58.0345 69.8398 58.2567C69.8398 58.5428 69.7475 58.7843 69.5617 58.9807C69.3766 59.1773 69.0901 59.3017 68.703 59.3552C68.8443 59.4232 68.9517 59.49 69.0252 59.556C69.1811 59.6993 69.3287 59.8781 69.4681 60.0928L70.1702 61.1914H69.4986L68.9643 60.3518C68.8085 60.1092 68.6802 59.9239 68.5789 59.7956C68.478 59.6671 68.3878 59.5771 68.3078 59.5258C68.2281 59.4745 68.1468 59.4387 68.0642 59.4184C68.0037 59.4053 67.9046 59.3993 67.7667 59.3993H67.1475V61.1914H66.6133Z" fill="#231F20"/>
<path d="M72.9624 61.1914V57.6316H71.6328V57.1554H74.8321V57.6316H73.4966V61.1914H72.9624Z" fill="#231F20"/>
<path d="M76.7227 61.1914V57.1554H77.5266L78.4819 60.0131C78.57 60.2792 78.6343 60.4784 78.6747 60.6105C78.7207 60.4637 78.7921 60.248 78.8893 59.9635L79.8555 57.1554H80.5743V61.1914H80.0594V57.8135L78.8867 61.1914H78.4049L77.2375 57.7557V61.1914H76.7227Z" fill="#231F20"/>
<path d="M82.8047 61.1914V57.1554H85.7229V57.6316H83.3389V58.8679H85.5716V59.3414H83.3389V60.7152H85.8165V61.1914H82.8047Z" fill="#231F20"/>
<path d="M87.9062 61.1914V57.1554H88.454L90.5738 60.3242V57.1554H91.086V61.1914H90.5382L88.4182 58.0197V61.1914H87.9062Z" fill="#231F20"/>
<path d="M94.3686 61.1914V57.6316H93.0391V57.1554H96.2382V57.6316H94.9028V61.1914H94.3686Z" fill="#231F20"/>
<path d="M101.359 59.2332C101.359 59.7198 101.49 60.1031 101.752 60.3828C102.013 60.6625 102.341 60.8025 102.736 60.8025C103.138 60.8025 103.468 60.6614 103.728 60.3784C103.988 60.096 104.118 59.6949 104.118 59.1754C104.118 58.847 104.062 58.5602 103.951 58.3151C103.84 58.0702 103.678 57.8803 103.464 57.7453C103.25 57.6105 103.01 57.5431 102.744 57.5431C102.366 57.5431 102.041 57.6728 101.768 57.9327C101.495 58.1924 101.359 58.6259 101.359 59.2332ZM100.809 59.225C100.809 58.5554 100.988 58.0309 101.348 57.6517C101.708 57.2728 102.172 57.083 102.741 57.083C103.114 57.083 103.45 57.1722 103.749 57.3503C104.048 57.5283 104.276 57.7767 104.433 58.095C104.59 58.4134 104.668 58.7745 104.668 59.1785C104.668 59.5875 104.586 59.954 104.42 60.2769C104.255 60.5999 104.021 60.8444 103.718 61.0103C103.416 61.1765 103.089 61.2598 102.739 61.2598C102.359 61.2598 102.019 61.1676 101.72 60.9844C101.421 60.8008 101.194 60.5501 101.04 60.2328C100.885 59.9151 100.809 59.5794 100.809 59.225Z" fill="#231F20"/>
<path d="M106.742 61.1914V57.1554H109.465V57.6316H107.276V58.8815H109.17V59.3579H107.276V61.1914H106.742Z" fill="#231F20"/>
<path d="M1.16406 70.4766V63.4808H2.57653V66.2341H5.34426V63.4808H6.75666V70.4766H5.34426V67.4177H2.57653V70.4766H1.16406Z" fill="#231F20"/>
<path d="M9.85938 63.4826H11.2719V67.2716C11.2719 67.8726 11.2894 68.2627 11.3244 68.4408C11.3849 68.7272 11.5288 68.9568 11.7564 69.1302C11.9837 69.3037 12.2947 69.3903 12.6892 69.3903C13.0901 69.3903 13.3922 69.3085 13.5959 69.1448C13.7995 68.9807 13.922 68.7794 13.9633 68.5408C14.0046 68.3021 14.0253 67.9064 14.0253 67.3528V63.4826H15.4378V67.1569C15.4378 67.9969 15.3996 68.5903 15.3232 68.9369C15.2469 69.2838 15.1062 69.5766 14.9011 69.8149C14.6958 70.0537 14.4215 70.2438 14.0778 70.3851C13.7343 70.5266 13.2857 70.5977 12.7322 70.5977C12.0641 70.5977 11.5575 70.5203 11.2123 70.3662C10.867 70.2119 10.5945 70.0116 10.3938 69.7648C10.1935 69.5183 10.0615 69.2598 9.99783 68.9895C9.90552 68.5883 9.85938 67.9969 9.85938 67.2142V63.4826Z" fill="#231F20"/>
<path d="M18.5586 70.4766V63.4808H20.6727L21.942 68.2528L23.1969 63.4808H25.3157V70.4766H24.0033V64.9697L22.6148 70.4766H21.2548L19.871 64.9697V70.4766H18.5586Z" fill="#231F20"/>
<path d="M32.0789 67.7087L31.1149 65.1129L30.1701 67.7087H32.0789ZM34.6795 70.4766H33.1429L32.5321 68.8876H29.7359L29.1586 70.4766H27.6602L30.385 63.4808H31.8785L34.6795 70.4766Z" fill="#231F20"/>
<path d="M37.0938 70.4766V63.4808H38.4681L41.3312 68.1527V63.4808H42.6435V70.4766H41.2263L38.4061 65.9146V70.4766H37.0938Z" fill="#231F20"/>
<path d="M49.7969 68.2011L51.1711 68.0679C51.2538 68.5291 51.4217 68.8676 51.6746 69.0839C51.9276 69.3003 52.2686 69.4085 52.6982 69.4085C53.1532 69.4085 53.4957 69.3124 53.7264 69.12C53.9572 68.9275 54.0724 68.7023 54.0724 68.4445C54.0724 68.2792 54.024 68.1387 53.9269 68.0221C53.8298 67.9064 53.6604 67.8051 53.4187 67.7193C53.2533 67.6621 52.8763 67.5602 52.2877 67.414C51.5304 67.2261 50.9993 66.9956 50.6939 66.722C50.2646 66.3371 50.0498 65.8677 50.0498 65.3143C50.0498 64.958 50.1507 64.6246 50.3527 64.3146C50.5549 64.0044 50.8458 63.7681 51.226 63.606C51.6061 63.4436 52.065 63.3626 52.6027 63.3626C53.4806 63.3626 54.1417 63.5551 54.5854 63.9397C55.0292 64.325 55.2622 64.8385 55.2844 65.4812L53.8719 65.5433C53.8114 65.1837 53.6818 64.9252 53.4831 64.7676C53.2843 64.6102 52.986 64.5317 52.5885 64.5317C52.178 64.5317 51.8567 64.616 51.6245 64.7845C51.4749 64.8927 51.4003 65.0374 51.4003 65.2189C51.4003 65.3842 51.4701 65.5259 51.6101 65.6434C51.7884 65.7932 52.2211 65.9488 52.9081 66.111C53.5953 66.2732 54.1034 66.4411 54.4328 66.6146C54.7619 66.788 55.0196 67.0249 55.2057 67.3259C55.3918 67.6263 55.4849 67.9976 55.4849 68.4399C55.4849 68.8408 55.3737 69.2161 55.151 69.5661C54.9281 69.9159 54.6131 70.1759 54.2061 70.3461C53.7988 70.5165 53.2914 70.6016 52.6837 70.6016C51.7995 70.6016 51.1201 70.3973 50.6462 69.9883C50.1722 69.5795 49.8892 68.9839 49.7969 68.2011Z" fill="#231F20"/>
<path d="M58.3242 70.4766V63.4808H63.5114V64.6643H59.7367V66.2152H63.2488V67.3939H59.7367V69.2979H63.6448V70.4766H58.3242Z" fill="#231F20"/>
<path d="M67.9125 66.4394H68.9575C69.6351 66.4394 70.0581 66.4109 70.227 66.3534C70.3955 66.2962 70.5274 66.1978 70.6229 66.0576C70.7183 65.9176 70.7662 65.7427 70.7662 65.533C70.7662 65.2973 70.7034 65.1075 70.5776 64.9626C70.4521 64.8178 70.2747 64.7263 70.0457 64.6882C69.931 64.6723 69.5875 64.6643 69.0148 64.6643H67.9125V66.4394ZM66.5 70.4766V63.4808H69.473C70.2205 63.4808 70.7637 63.5438 71.1026 63.6694C71.4413 63.7952 71.7126 64.0186 71.9159 64.3399C72.1199 64.661 72.2213 65.0285 72.2213 65.4422C72.2213 65.9671 72.067 66.4006 71.7588 66.7425C71.4503 67.0847 70.9887 67.3001 70.3748 67.3893C70.6802 67.5672 70.9326 67.7628 71.1311 67.9759C71.33 68.1891 71.5979 68.5676 71.9351 69.112L72.7894 70.4766H71.1001L70.079 68.954C69.7163 68.4104 69.4682 68.0675 69.3347 67.9258C69.2011 67.7845 69.0594 67.6875 68.9099 67.6348C68.7603 67.5823 68.5233 67.5563 68.1987 67.5563H67.9125V70.4766H66.5Z" fill="#231F20"/>
<path d="M76.8129 70.4766L74.3125 63.4808H75.8441L77.6146 68.6583L79.3277 63.4808H80.826L78.3206 70.4766H76.8129Z" fill="#231F20"/>
<path d="M83.1562 70.4766V63.4808H84.5685V70.4766H83.1562Z" fill="#231F20"/>
<path d="M92.0408 67.9064L93.4102 68.3404C93.2001 69.104 92.8509 69.6711 92.3626 70.0416C91.8744 70.4123 91.255 70.5977 90.504 70.5977C89.5752 70.5977 88.8116 70.2802 88.2136 69.6455C87.6153 69.0108 87.3164 68.1434 87.3164 67.0427C87.3164 65.8783 87.617 64.9738 88.2182 64.3297C88.8195 63.6853 89.6098 63.3635 90.59 63.3635C91.4455 63.3635 92.1409 63.6162 92.6753 64.1223C92.9931 64.4212 93.2317 64.8507 93.391 65.4107L91.9929 65.7445C91.91 65.3818 91.7377 65.0956 91.4753 64.8857C91.2125 64.6758 90.8937 64.5707 90.5184 64.5707C89.9999 64.5707 89.5788 64.757 89.2562 65.1288C88.9332 65.5011 88.7718 66.1042 88.7718 66.9375C88.7718 67.8221 88.9307 68.4521 89.2491 68.8271C89.5673 69.2026 89.9807 69.3903 90.4897 69.3903C90.8649 69.3903 91.1881 69.271 91.4585 69.0326C91.7289 68.7938 91.9228 68.4183 92.0408 67.9064Z" fill="#231F20"/>
<path d="M96.2734 70.4766V63.4808H101.461V64.6643H97.6859V66.2152H101.198V67.3939H97.6859V69.2979H101.594V70.4766H96.2734Z" fill="#231F20"/>
<path d="M104.086 68.2011L105.46 68.0679C105.543 68.5291 105.711 68.8676 105.964 69.0839C106.216 69.3003 106.558 69.4085 106.987 69.4085C107.442 69.4085 107.785 69.3124 108.015 69.12C108.246 68.9275 108.361 68.7023 108.361 68.4445C108.361 68.2792 108.313 68.1387 108.216 68.0221C108.119 67.9064 107.949 67.8051 107.708 67.7193C107.542 67.6621 107.165 67.5602 106.577 67.414C105.82 67.2261 105.288 66.9956 104.983 66.722C104.554 66.3371 104.338 65.8677 104.338 65.3143C104.338 64.958 104.44 64.6246 104.642 64.3146C104.844 64.0044 105.135 63.7681 105.515 63.606C105.895 63.4436 106.354 63.3626 106.892 63.3626C107.77 63.3626 108.431 63.5551 108.874 63.9397C109.318 64.325 109.551 64.8385 109.573 65.4812L108.161 65.5433C108.101 65.1837 107.971 64.9252 107.772 64.7676C107.573 64.6102 107.275 64.5317 106.877 64.5317C106.467 64.5317 106.146 64.616 105.913 64.7845C105.764 64.8927 105.689 65.0374 105.689 65.2189C105.689 65.3842 105.759 65.5259 105.899 65.6434C106.077 65.7932 106.51 65.9488 107.197 66.111C107.884 66.2732 108.393 66.4411 108.722 66.6146C109.051 66.788 109.309 67.0249 109.495 67.3259C109.681 67.6263 109.774 67.9976 109.774 68.4399C109.774 68.8408 109.662 69.2161 109.44 69.5661C109.217 69.9159 108.902 70.1759 108.495 70.3461C108.088 70.5165 107.58 70.6016 106.973 70.6016C106.088 70.6016 105.409 70.3973 104.935 69.9883C104.461 69.5795 104.178 68.9839 104.086 68.2011Z" fill="#231F20"/>
<path d="M109.354 25.6877C108.322 24.1473 107.095 22.914 105.674 21.9904C104.256 21.0688 101.289 19.7429 98.0889 18.9996C95.3716 18.3185 93.1189 18.0535 91.4367 17.6122C89.7546 17.1712 87.3821 16.49 86.4288 16.049C85.4756 15.6079 84.8378 15.1275 84.5131 14.6055C84.1882 14.0859 84.0269 13.4046 84.0269 12.5618C84.0269 11.6402 84.2278 10.8782 84.6343 10.2777C85.041 9.67725 85.5574 9.17598 86.1858 8.77427C86.8144 8.37467 87.5805 8.03117 88.3364 7.83109C88.928 7.67466 89.9543 7.4941 90.8236 7.42709C92.0729 7.33078 93.2566 7.32771 94.2624 7.44624C95.4055 7.58103 96.4792 7.88336 97.6532 8.4662C98.6218 8.94736 99.8231 9.73641 100.521 10.5448C100.943 11.034 101.935 11.7572 101.915 14.2398L109.448 14.2352C109.448 11.7503 108.969 9.63475 108.018 7.89121C107.062 6.14749 105.777 4.71567 104.154 3.59327C102.532 2.47086 100.677 1.66018 98.5881 1.1568C96.4994 0.658016 94.3195 0.406231 92.0509 0.406231C90.1046 0.406231 88.1583 0.667206 86.2097 1.18686C84.2634 1.70881 82.5205 2.51011 80.9806 3.59327C80.4878 3.93964 80.0275 4.31147 79.5954 4.71337C79.5954 4.71337 78.5605 5.58935 77.6406 7.13931V17.8825C79.1138 20.5407 81.2324 21.3713 81.305 21.4083C83.1035 22.3268 84.6127 22.9445 86.1829 23.4392C87.98 24.0054 90.0091 24.5773 91.6383 24.9453C92.9552 25.2429 95.5127 25.5785 98.7574 26.8842C103.203 28.6725 104.061 32.949 101.993 35.1982C97.2639 40.3425 90.2252 38.5602 89.0504 38.2581C81.0704 36.2053 79.05 31.3659 77.6406 30.108V39.4942C77.7457 39.575 82.0205 43.5544 85.8756 44.4472C88.1424 44.9722 90.4481 45.3203 92.8405 45.3203C95.8009 45.3203 98.4058 44.9785 100.658 44.2973C102.908 43.6158 104.793 42.6644 106.315 41.4403C107.836 40.2188 108.981 38.7661 109.752 37.0825C110.52 35.3989 110.906 33.5745 110.906 31.6114C110.906 29.2073 110.389 27.2326 109.354 25.6877Z" fill="#100F0D"/>
<path d="M7.21693 53.2345L4.1875 51.2204V53.2871H7.21693V53.2345Z" fill="#100F0D"/>
<path d="M10.2148 53.2773V51.2175L7.19531 49.2099V53.2251L7.27437 53.2773H10.2148Z" fill="#100F0D"/>
<path d="M13.3134 53.2773L13.2344 53.2251V53.2773H13.3134Z" fill="#100F0D"/>
<path d="M4.1856 47.1923H1.15625V49.2064L4.1856 51.2207V47.1923Z" fill="#100F0D"/>
<path d="M7.21693 47.1928H4.1875L7.21693 49.207V47.1928Z" fill="#100F0D"/>
<path d="M13.2754 53.2344V47.1919H10.2461V51.2201L13.2754 53.2344Z" fill="#100F0D"/>
<path d="M19.334 53.2871V47.192H16.3047V53.2871H19.334Z" fill="#100F0D"/>
<path d="M7.21693 53.2344V49.2062L4.1875 47.1919V51.2203L7.21693 53.2344Z" fill="#E6A611"/>
<path d="M4.1856 51.2204L1.15625 49.2061V53.2871H4.1856V51.2204Z" fill="#E6A611"/>
<path d="M10.2442 51.2207V47.1925H7.21484V49.2068L10.2442 51.2207Z" fill="#E6A611"/>
<path d="M13.2344 53.2773V53.2251L10.2148 51.2175V53.2773H13.2344Z" fill="#E6A611"/>
<path d="M7.27437 53.2773L7.19531 53.2251V53.2773H7.27437Z" fill="#E6A611"/>
<path d="M13.3527 53.2871H16.3029V47.192H13.2734V53.2345L13.3527 53.2871Z" fill="#E6A611"/>
<path d="M36.9052 53.2249C36.9052 53.2425 36.9037 53.2601 36.9023 53.2773H37.3883V53.2249H36.9052Z" fill="white"/>
<path d="M19.8167 53.2344C19.8167 53.0318 19.9002 52.8308 20.044 52.6876C20.1874 52.5443 20.3892 52.4611 20.5922 52.4611H21.2708V51.712C21.2708 51.5094 21.3542 51.308 21.498 51.165C21.6415 51.0218 21.8433 50.9385 22.0464 50.9385C22.2494 50.9385 22.451 51.0218 22.5946 51.165C22.7382 51.308 22.8219 51.5094 22.8219 51.712V52.4611H27.6446V50.7453H26.8933C26.6904 50.7453 26.4883 50.6618 26.3449 50.5184C26.2013 50.3752 26.1179 50.1741 26.1179 49.9716C26.1179 49.769 26.2013 49.5679 26.3449 49.4247C26.4883 49.2815 26.6904 49.1982 26.8933 49.1982H27.6446V48.8114C27.6446 48.6092 27.7281 48.4078 27.8717 48.2648C28.0155 48.1216 28.2171 48.0381 28.4201 48.0381V47.1922H19.332V53.2344H19.8167Z" fill="white"/>
<path d="M28.8785 48.2713C29.0217 48.4135 29.105 48.6144 29.105 48.8162V49.2014H29.8538C30.0562 49.2014 30.2575 49.2845 30.4003 49.4276C30.5435 49.5702 30.6268 49.7707 30.6268 49.9725C30.6268 50.1743 30.5435 50.3748 30.4003 50.5174C30.2575 50.6604 30.0562 50.7435 29.8538 50.7435H29.105V52.4537H33.9119V51.707C33.9119 51.5052 33.9955 51.3045 34.1384 51.1621C34.2816 51.0191 34.4825 50.9361 34.685 50.9361C34.8874 50.9361 35.0887 51.0191 35.2315 51.1621C35.3747 51.3045 35.458 51.5052 35.458 51.707V52.4537H36.1343C36.3369 52.4537 36.5379 52.5367 36.6809 52.6795C36.824 52.8222 36.9074 53.0228 36.9074 53.2246H37.3905V47.2021H28.332V48.0451C28.5344 48.0451 28.7355 48.1282 28.8785 48.2713Z" fill="#961A31"/>
<path d="M28.3332 53.2773V53.2249H19.7578C19.7578 53.2425 19.7592 53.2601 19.7604 53.2773H28.3332Z" fill="white"/>
<path d="M36.2498 52.4611H35.5712V51.712C35.5712 51.5094 35.4877 51.308 35.3439 51.165C35.2007 51.0218 34.9987 50.9385 34.7957 50.9385C34.5926 50.9385 34.391 51.0218 34.2474 51.165C34.104 51.308 34.0201 51.5094 34.0201 51.712V52.4611H29.1975V50.7453H29.9487C30.1516 50.7453 30.3536 50.6618 30.497 50.5184C30.6406 50.3752 30.7243 50.1741 30.7243 49.9716C30.7243 49.769 30.6406 49.5679 30.497 49.4247C30.3536 49.2815 30.1516 49.1982 29.9487 49.1982H29.1975V48.8114C29.1975 48.6092 29.114 48.4078 28.9702 48.2648C28.8266 48.1216 28.625 48.0381 28.4219 48.0381V53.2344H37.0252C37.0252 53.0318 36.9418 52.8308 36.798 52.6876C36.6547 52.5443 36.4529 52.4611 36.2498 52.4611Z" fill="white"/>
<path d="M28.4198 48.0381C28.2168 48.0381 28.0152 48.1216 27.8714 48.2648C27.7278 48.4078 27.6443 48.6092 27.6443 48.8114V49.1982H26.893C26.6901 49.1982 26.4881 49.2815 26.3446 49.4247C26.201 49.5679 26.1176 49.769 26.1176 49.9716C26.1176 50.1741 26.201 50.3752 26.3446 50.5184C26.4881 50.6618 26.6901 50.7453 26.893 50.7453H27.6443V52.4611H22.8216V51.712C22.8216 51.5094 22.7379 51.308 22.5943 51.165C22.4507 51.0218 22.2491 50.9385 22.0461 50.9385C21.843 50.9385 21.6412 51.0218 21.4977 51.165C21.354 51.308 21.2705 51.5094 21.2705 51.712V52.4611H20.5919C20.3889 52.4611 20.1871 52.5443 20.0437 52.6876C19.8999 52.8308 19.8164 53.0318 19.8164 53.2344H28.4198V48.0381Z" fill="#961A31"/>
<path d="M43.1972 53.2678L40.168 51.2537V53.3203H43.1972V53.2678Z" fill="#100F0D"/>
<path d="M46.1953 53.3184V51.2539L43.1758 49.2422V53.2657L43.2547 53.3184H46.1953Z" fill="#100F0D"/>
<path d="M49.2937 53.3105L49.2148 53.2581V53.3105H49.2937Z" fill="#100F0D"/>
<path d="M40.1662 47.1917H37.1367V49.2226L40.1662 51.2539V47.1917Z" fill="#100F0D"/>
<path d="M43.1972 47.224H40.168L43.1972 49.2383V47.224Z" fill="#100F0D"/>
<path d="M49.2558 53.2676V47.2251H46.2266V51.2533L49.2558 53.2676Z" fill="#100F0D"/>
<path d="M55.3144 53.3203V47.2254H52.2852V53.3203H55.3144Z" fill="#100F0D"/>
<path d="M43.1972 53.2676V49.2394L40.168 47.2251V51.2535L43.1972 53.2676Z" fill="#E6A611"/>
<path d="M40.1662 51.2537L37.1367 49.2395V53.3203H40.1662V51.2537Z" fill="#E6A611"/>
<path d="M46.2248 51.2539V47.2257H43.1953V49.24L46.2248 51.2539Z" fill="#E6A611"/>
<path d="M49.2148 53.3105V53.2581L46.1953 51.2507V53.3105H49.2148Z" fill="#E6A611"/>
<path d="M43.2704 53.3223L43.1758 53.2579V53.3223H43.2704Z" fill="#E6A611"/>
<path d="M49.3332 53.3203H52.2834V47.2254H49.2539V53.2678L49.3332 53.3203Z" fill="#E6A611"/>
<path d="M72.8894 53.2581C72.8894 53.2757 72.8879 53.2934 72.8867 53.3105H73.3725V53.2581H72.8894Z" fill="white"/>
<path d="M55.7973 53.2676C55.7973 53.065 55.8808 52.8637 56.0246 52.7205C56.168 52.5773 56.3698 52.4942 56.5728 52.4942H57.2513V51.7452C57.2513 51.5425 57.335 51.3412 57.4786 51.1981C57.622 51.0549 57.824 50.9716 58.027 50.9716C58.2301 50.9716 58.4316 51.0549 58.5752 51.1981C58.7188 51.3412 58.8024 51.5425 58.8024 51.7452V52.4942H63.625V50.7782H62.8741C62.6709 50.7782 62.4689 50.6949 62.3255 50.5515C62.1819 50.4083 62.0984 50.2073 62.0984 50.0047C62.0984 49.8021 62.1819 49.6011 62.3255 49.4578C62.4689 49.3144 62.6709 49.2313 62.8741 49.2313H63.625V48.8446C63.625 48.6424 63.7087 48.4408 63.8523 48.2979C63.9961 48.1545 64.1977 48.0712 64.4007 48.0712V47.2253H55.3125V53.2676H55.7973Z" fill="white"/>
<path d="M64.8592 48.3045C65.0024 48.4467 65.0857 48.6476 65.0857 48.8494V49.2346H65.8343C66.0367 49.2346 66.2379 49.3177 66.3808 49.4606C66.524 49.6034 66.6075 49.8037 66.6075 50.0057C66.6075 50.2075 66.524 50.408 66.3808 50.5506C66.2379 50.6936 66.0367 50.7767 65.8343 50.7767H65.0857V52.4869H69.8923V51.7402C69.8923 51.5384 69.976 51.3377 70.119 51.1953C70.2623 51.0523 70.4629 50.9694 70.6655 50.9694C70.8679 50.9694 71.0691 51.0523 71.2122 51.1953C71.3554 51.3377 71.4385 51.5384 71.4385 51.7402V52.4869H72.1147C72.3173 52.4869 72.5186 52.5699 72.6614 52.7127C72.8046 52.8554 72.8879 53.056 72.8879 53.2578H73.371V47.2353H64.3125V48.0783C64.5149 48.0783 64.7159 48.1614 64.8592 48.3045Z" fill="#961A31"/>
<path d="M64.3125 53.3105H72.8852C72.8864 53.2934 72.8879 53.2757 72.8879 53.2581H64.3125V53.3105Z" fill="#961A31"/>
<path d="M64.3137 53.3105V53.2581H55.7383C55.7383 53.2757 55.7398 53.2934 55.741 53.3105H64.3137Z" fill="white"/>
<path d="M72.2302 52.4942H71.5517V51.7452C71.5517 51.5425 71.4682 51.3412 71.3246 51.1981C71.1812 51.0549 70.9792 50.9716 70.776 50.9716C70.5731 50.9716 70.3714 51.0549 70.2278 51.1981C70.0844 51.3412 70.0006 51.5425 70.0006 51.7452V52.4942H65.178V50.7782H65.9291C66.1321 50.7782 66.3341 50.6949 66.4775 50.5515C66.6211 50.4083 66.7048 50.2073 66.7048 50.0047C66.7048 49.8021 66.6211 49.6011 66.4775 49.4578C66.3341 49.3144 66.1321 49.2313 65.9291 49.2313H65.178V48.8446C65.178 48.6424 65.0945 48.4408 64.9509 48.2979C64.8073 48.1545 64.6055 48.0712 64.4023 48.0712V53.2676H73.0059C73.0059 53.065 72.9222 52.8637 72.7784 52.7205C72.6352 52.5773 72.4334 52.4942 72.2302 52.4942Z" fill="white"/>
<path d="M64.4002 48.0712C64.1973 48.0712 63.9957 48.1545 63.8519 48.2979C63.7083 48.4408 63.6246 48.6424 63.6246 48.8446V49.2313H62.8736C62.6705 49.2313 62.4685 49.3144 62.3251 49.4578C62.1815 49.6011 62.098 49.8021 62.098 50.0047C62.098 50.2073 62.1815 50.4083 62.3251 50.5515C62.4685 50.6949 62.6705 50.7782 62.8736 50.7782H63.6246V52.4942H58.802V51.7452C58.802 51.5425 58.7183 51.3412 58.5747 51.1981C58.4311 51.0549 58.2297 50.9716 58.0266 50.9716C57.8236 50.9716 57.6216 51.0549 57.4782 51.1981C57.3346 51.3412 57.2509 51.5425 57.2509 51.7452V52.4942H56.5723C56.3694 52.4942 56.1676 52.5773 56.0242 52.7205C55.8804 52.8637 55.7969 53.065 55.7969 53.2676H64.4002V48.0712Z" fill="#961A31"/>
<path d="M37.1339 53.1864H19.332V53.2871H37.1339V53.1864Z" fill="#961A31"/>
<path d="M73.3736 53.2176H55.3125V53.3184H73.3736V53.2176Z" fill="#961A31"/>
<path d="M28.3474 47.2656H19.3203V47.2036H28.3474V47.2656Z" fill="#961A31"/>
<path d="M64.3277 47.2969H55.3008V47.2348H64.3277V47.2969Z" fill="#961A31"/>
<path d="M79.3968 53.2991L76.3672 51.285V53.3516H79.3968V53.2991Z" fill="#100F0D"/>
<path d="M82.3984 53.3496V51.2852L79.3789 49.2734V53.297L79.4578 53.3496H82.3984Z" fill="#100F0D"/>
<path d="M85.4969 53.3418L85.418 53.2891V53.3418H85.4969Z" fill="#100F0D"/>
<path d="M76.3691 47.2229H73.3398V49.2538L76.3691 51.2852V47.2229Z" fill="#100F0D"/>
<path d="M79.3968 47.2553H76.3672L79.3968 49.2695V47.2553Z" fill="#100F0D"/>
<path d="M85.455 53.2988V47.2564H82.4258V51.2845L85.455 53.2988Z" fill="#100F0D"/>
<path d="M91.514 53.3516V47.2567H88.4844V53.3516H91.514Z" fill="#100F0D"/>
<path d="M79.3968 53.2988V49.2706L76.3672 47.2564V51.2847L79.3968 53.2988Z" fill="#E6A611"/>
<path d="M76.3691 51.285L73.3398 49.2708V53.3516H76.3691V51.285Z" fill="#E6A611"/>
<path d="M82.4277 51.2832V47.255H79.3984V49.2693L82.4277 51.2832Z" fill="#E6A611"/>
<path d="M85.4179 53.3418V53.2891L82.3984 51.2817V53.3418H85.4179Z" fill="#E6A611"/>
<path d="M79.4733 53.3535L79.3789 53.2892V53.3535H79.4733Z" fill="#E6A611"/>
<path d="M85.5363 53.3516H88.4863V47.2567H85.457V53.2991L85.5363 53.3516Z" fill="#E6A611"/>
<path d="M109.089 53.2891C109.089 53.3067 109.087 53.3244 109.086 53.3418H109.572V53.2891H109.089Z" fill="white"/>
<path d="M92.0002 53.2988C92.0002 53.0963 92.0839 52.895 92.2275 52.7518C92.3709 52.6086 92.5727 52.5255 92.7757 52.5255H93.4543V51.7763C93.4543 51.5737 93.5377 51.3725 93.6813 51.2294C93.825 51.0862 94.0268 51.0029 94.2299 51.0029C94.4329 51.0029 94.6347 51.0862 94.7783 51.2294C94.9217 51.3725 95.0054 51.5737 95.0054 51.7763V52.5255H99.8281V50.8095H99.0768C98.8737 50.8095 98.672 50.7262 98.5286 50.5828C98.3848 50.4396 98.3013 50.2386 98.3013 50.036C98.3013 49.8334 98.3848 49.6324 98.5286 49.4892C98.672 49.3457 98.8737 49.2626 99.0768 49.2626H99.8281V48.8759C99.8281 48.6737 99.9114 48.4721 100.055 48.3292C100.199 48.1858 100.401 48.1025 100.604 48.1025V47.2566H91.5156V53.2988H92.0002Z" fill="white"/>
<path d="M101.062 48.3355C101.205 48.478 101.289 48.6788 101.289 48.8806V49.2659H102.037C102.24 49.2659 102.441 49.349 102.584 49.4918C102.727 49.6346 102.81 49.8349 102.81 50.0369C102.81 50.2387 102.727 50.4392 102.584 50.5818C102.441 50.7249 102.24 50.8078 102.037 50.8078H101.289V52.5182H106.095V51.7714C106.095 51.5696 106.179 51.369 106.322 51.2263C106.465 51.0837 106.666 51.0006 106.868 51.0006C107.071 51.0006 107.272 51.0837 107.415 51.2263C107.558 51.369 107.642 51.5696 107.642 51.7714V52.5182H108.318C108.52 52.5182 108.721 52.6011 108.864 52.7439C109.008 52.8868 109.091 53.087 109.091 53.2891H109.574V47.2665H100.516V48.1096C100.718 48.1096 100.919 48.1927 101.062 48.3355Z" fill="#961A31"/>
<path d="M100.516 53.3418H109.088C109.089 53.3244 109.091 53.3067 109.091 53.2891H100.516V53.3418Z" fill="#961A31"/>
<path d="M100.513 53.3418V53.2891H91.9375C91.9375 53.3067 91.9388 53.3244 91.9402 53.3418H100.513Z" fill="white"/>
<path d="M108.429 52.5255H107.751V51.7763C107.751 51.5737 107.667 51.3725 107.523 51.2294C107.38 51.0862 107.178 51.0029 106.975 51.0029C106.772 51.0029 106.57 51.0862 106.427 51.2294C106.283 51.3725 106.2 51.5737 106.2 51.7763V52.5255H101.377V50.8095H102.128C102.331 50.8095 102.533 50.7262 102.676 50.5828C102.82 50.4396 102.904 50.2386 102.904 50.036C102.904 49.8334 102.82 49.6324 102.676 49.4892C102.533 49.3457 102.331 49.2626 102.128 49.2626H101.377V48.8759C101.377 48.6737 101.294 48.4721 101.15 48.3292C101.006 48.1858 100.805 48.1025 100.602 48.1025V53.2988H109.205C109.205 53.0963 109.121 52.895 108.978 52.7518C108.834 52.6086 108.632 52.5255 108.429 52.5255Z" fill="white"/>
<path d="M100.604 48.1025C100.4 48.1025 100.199 48.1858 100.055 48.3292C99.9112 48.4721 99.8279 48.6737 99.8279 48.8759V49.2626H99.0766C98.8734 49.2626 98.6718 49.3457 98.5284 49.4892C98.3846 49.6324 98.3011 49.8334 98.3011 50.036C98.3011 50.2386 98.3846 50.4396 98.5284 50.5828C98.6718 50.7262 98.8734 50.8095 99.0766 50.8095H99.8279V52.5255H95.0051V51.7763C95.0051 51.5737 94.9215 51.3725 94.778 51.2294C94.6344 51.0862 94.4326 51.0029 94.2297 51.0029C94.0265 51.0029 93.8247 51.0862 93.6811 51.2294C93.5375 51.3725 93.454 51.5737 93.454 51.7763V52.5255H92.7755C92.5725 52.5255 92.3707 52.6086 92.2273 52.7518C92.0837 52.895 92 53.0963 92 53.2988H100.604V48.1025Z" fill="#961A31"/>
<path d="M109.573 53.2489H91.5117V53.3496H109.573V53.2489Z" fill="#961A31"/>
<path d="M100.531 47.3281H91.5039V47.2661H100.531V47.3281Z" fill="#961A31"/>
<path d="M24.3053 21.1008C23.4687 21.731 22.9194 22.7953 22.9194 24.003V25.2988H19.8719V23.6194C19.8719 21.4237 18.42 19.5807 16.4609 19.0741C17.0457 17.4799 17.9126 16.2541 20.0236 16.2687C23.1457 16.2905 24.2206 18.6318 24.3053 21.1008Z" fill="#231F20"/>
<path d="M14.6932 18.9882C12.873 19.2748 11.4103 20.726 10.992 22.5672L7.96468 22.5762L7.98563 21.3783C7.98563 20.1227 7.30777 19.0315 6.3125 18.4798C6.97995 16.9418 8.19826 15.7493 10.328 15.7493C11.4329 15.7493 12.2674 16.0847 12.9708 16.5176C13.266 16.6995 13.3396 17.3201 13.6228 17.74C13.9059 18.1599 14.2767 18.5426 14.6932 18.9882Z" fill="#231F20"/>
<path d="M12.6802 13.154C12.6802 14.4637 11.6185 15.5254 10.3088 15.5254C8.99919 15.5254 7.9375 14.4637 7.9375 13.154C7.9375 11.8444 8.99919 10.7827 10.3088 10.7827C11.6185 10.7827 12.6802 11.8444 12.6802 13.154Z" fill="#231F20"/>
<path d="M22.4536 13.7848C22.4536 15.0265 21.447 16.0332 20.2054 16.0332C18.9637 16.0332 17.957 15.0265 17.957 13.7848C17.957 12.5431 18.9637 11.5365 20.2054 11.5365C21.447 11.5365 22.4536 12.5431 22.4536 13.7848Z" fill="#231F20"/>
<path d="M10.8711 29.9137V23.6195C10.8711 23.247 10.913 22.8846 10.9919 22.5373C11.4101 20.6959 12.8729 19.2752 14.6931 18.9885C14.9148 18.9537 15.1413 18.9353 15.3722 18.9353C15.7481 18.9353 16.113 18.9836 16.462 19.0741C18.4211 19.5808 19.873 21.4237 19.873 23.6195V25.2988V29.9141" stroke="#231F20" stroke-width="4.50265"/>
<path d="M17.723 16.4294C17.723 17.7282 16.6701 18.7812 15.3713 18.7812C14.0725 18.7812 13.0195 17.7282 13.0195 16.4294C13.0195 15.1305 14.0725 14.0778 15.3713 14.0778C16.6701 14.0778 17.723 15.1305 17.723 16.4294Z" stroke="#231F20" stroke-width="4.50265"/>
<path d="M6.95553 15.1432C6.95553 16.3154 6.00528 17.2656 4.83319 17.2656C3.66112 17.2656 2.71094 16.3154 2.71094 15.1432C2.71094 13.971 3.66112 13.0209 4.83319 13.0209C6.00528 13.0209 6.95553 13.971 6.95553 15.1432Z" stroke="#231F20" stroke-width="4.50265"/>
<path d="M1.67969 25.043V21.3792C1.67969 19.5663 3.09148 18.0972 4.83327 18.0972C5.36841 18.0972 5.87185 18.2358 6.31336 18.4807C7.30862 19.0323 7.98649 20.1235 7.98649 21.3792V22.556V25.043" stroke="#231F20" stroke-width="4.50265"/>
<path d="M28.276 17.5182C28.276 18.6904 27.3257 19.6406 26.1537 19.6406C24.9815 19.6406 24.0312 18.6904 24.0312 17.5182C24.0312 16.3462 24.9815 15.3959 26.1537 15.3959C27.3257 15.3959 28.276 16.3462 28.276 17.5182Z" stroke="#231F20" stroke-width="4.50265"/>
<path d="M22.9219 27.916V24.0039C22.9219 22.7963 23.4712 21.7319 24.3077 21.1018C24.8117 20.7219 25.42 20.4998 26.075 20.4998C27.8168 20.4998 29.2282 22.0685 29.2282 24.0039V27.916" stroke="#231F20" stroke-width="4.50265"/>
</svg>
