<svg width="137" height="95" viewBox="0 0 137 95" fill="none" xmlns="http://www.w3.org/2000/svg">
<g clip-path="url(#clip0_5863_27716)">
<path d="M18.12 66.5703L11.18 80.8603L4.22 66.5703H0V88.0803H3.35V72.0103L10.01 85.8403H12.33L18.99 72.0103L19.02 88.0803H22.31V66.5703H18.12Z" fill="#231F20"/>
<path d="M37.4395 82.3294V80.8194H33.0995C30.8395 80.8194 29.7895 81.4394 29.7895 82.9994C29.7895 84.4694 30.9695 85.4194 32.8995 85.4194C35.3695 85.4194 37.2695 84.0994 37.4495 82.3194M37.4695 86.0794C36.3195 87.5194 34.4795 88.2294 32.1595 88.2294C28.6895 88.2294 26.5195 86.0494 26.5195 83.1594C26.5195 80.2694 28.7195 78.2794 32.5795 78.2494H37.4295V77.7594C37.4295 75.6994 36.1295 74.4694 33.5995 74.4694C32.0595 74.4694 30.4695 75.0194 28.8695 76.1294L27.4495 73.6694C29.6795 72.3194 31.3095 71.6094 34.3495 71.6094C38.4795 71.6094 40.7995 73.7594 40.8295 77.3494L40.8595 88.0694H37.4495V86.0694L37.4695 86.0794Z" fill="#231F20"/>
<path d="M49.1614 74.9894C50.2414 72.7794 52.1714 71.6094 54.7114 71.6094V74.9894C51.4914 74.8094 49.4414 76.7394 49.1614 79.5394V88.0794H45.6914V71.7394H49.1614V74.9994V74.9894Z" fill="#231F20"/>
<path d="M65.3303 90.32C64.3303 92.9 62.5303 94.19 60.1103 94.19C58.6703 94.19 57.5203 93.76 56.4003 92.81L57.8803 90.08C58.6303 90.63 59.2403 90.88 59.9603 90.88C61.0203 90.88 61.8603 90.3 62.4003 89.07L62.9503 87.84L56.3203 71.75H59.9103L64.7003 84.13L69.1603 71.75H72.6303L65.3303 90.33V90.32Z" fill="#231F20"/>
<path d="M78.3216 65.2891H74.8516V88.0791H78.3216V65.2891Z" fill="#231F20"/>
<path d="M93.3302 82.3294V80.8194H88.9902C86.7302 80.8194 85.6702 81.4394 85.6702 82.9994C85.6702 84.4694 86.8501 85.4194 88.7701 85.4194C91.2401 85.4194 93.1402 84.0994 93.3202 82.3194M93.3602 86.0794C92.2102 87.5194 90.3702 88.2294 88.0502 88.2294C84.5802 88.2294 82.4102 86.0494 82.4102 83.1594C82.4102 80.2694 84.6102 78.2794 88.4702 78.2494H93.3202V77.7594C93.3202 75.6994 92.0202 74.4694 89.4902 74.4694C87.9502 74.4694 86.3602 75.0194 84.7602 76.1294L83.3401 73.6694C85.5701 72.3194 87.2002 71.6094 90.2402 71.6094C94.3702 71.6094 96.6902 73.7594 96.7202 77.3494L96.7502 88.0694H93.3502V86.0694L93.3602 86.0794Z" fill="#231F20"/>
<path d="M116.928 77.9094V88.0794H113.458V78.8994C113.458 76.4394 112.008 74.9394 109.598 74.9394C106.948 74.9694 105.288 76.8394 105.048 79.3894V88.0794H101.578V71.7394H105.048V74.8694C106.198 72.5994 108.238 71.6094 110.958 71.6094C114.698 71.6094 116.928 73.9994 116.928 77.9094Z" fill="#231F20"/>
<path d="M133.539 79.9691C133.539 76.8091 131.519 74.5891 128.629 74.5891C125.739 74.5891 123.719 76.8291 123.689 79.9691C123.719 83.0691 125.709 85.2891 128.629 85.2891C131.549 85.2891 133.539 83.0791 133.539 79.9691ZM136.999 88.0791H133.529V85.2891C132.379 87.1891 130.449 88.2391 127.889 88.2391C123.279 88.2391 120.199 84.8291 120.199 79.8491C120.199 74.8691 123.309 71.5891 127.829 71.5891C130.419 71.5891 132.349 72.6591 133.529 74.5691V65.2891H136.999V88.0791Z" fill="#231F20"/>
<path d="M48.4909 15.36L71.4509 29.5V0.09C70.3609 0.04 69.2309 0 68.0209 0C49.4509 0 33.8609 9.19 25.2109 22.35V42.41H48.4909V15.36Z" fill="#FFC233"/>
<path d="M71.4992 39.12H87.2092L71.4492 29.5L71.4992 39.12Z" fill="#FFC233"/>
<path d="M48.4883 15.3594V42.4194H51.8283C52.1983 40.3894 53.9983 39.1194 56.1583 39.1194H59.0983V35.3094C59.0983 32.8294 61.0783 30.8094 63.5083 30.8094C65.9383 30.8094 67.9183 32.8194 67.9183 35.3094V39.1194H71.4983L71.4483 29.4994L48.4883 15.3594Z" fill="#231F20"/>
<path d="M87.2087 39.1201H89.4187V30.7501H86.0788C83.6388 30.7501 81.6588 28.7401 81.6588 26.2501C81.6588 23.7601 83.6388 21.7501 86.0788 21.7501H89.4187V19.5601C89.4187 19.1901 89.4588 18.8201 89.5488 18.4501C89.6588 17.9901 89.8487 17.5501 90.0987 17.1601C90.3387 16.7701 90.6487 16.4101 90.9987 16.1201C91.3487 15.8201 91.7487 15.5801 92.1787 15.4001C92.3887 15.3101 92.6088 15.2401 92.8288 15.1901C93.4688 15.0501 94.1387 15.0801 94.7687 15.2701C94.7887 15.2701 94.8088 15.2901 94.8288 15.2901V6.77008C90.2887 4.24008 85.2387 2.32008 79.8587 1.19008C77.7887 0.750078 75.6587 0.430078 73.4987 0.230078C72.8287 0.170078 72.1488 0.110078 71.4688 0.0800781V29.5101L87.2188 39.1301L87.2087 39.1201Z" fill="#231F20"/>
<path d="M86.0687 55.1299H89.4088V46.7599H67.9287V50.5699C67.9287 53.0499 65.9488 55.0699 63.5188 55.0699C61.0888 55.0699 59.1087 53.0599 59.1087 50.5699V46.7599H56.1687C53.8787 46.7599 52.0088 45.3499 51.7888 43.0999H51.7688C51.7688 43.0399 51.7687 42.9899 51.7787 42.9399C51.7787 42.8899 51.7688 42.8299 51.7688 42.7799H51.7888C51.7988 42.6599 51.8188 42.5399 51.8388 42.4199H25.2188V61.3999H82.0187C81.7887 60.8599 81.6588 60.2599 81.6588 59.6299C81.6588 57.1499 83.6388 55.1299 86.0788 55.1299" fill="#C40E3E"/>
<path d="M96.0003 15.9091C96.3803 16.1791 96.7103 16.5091 96.9803 16.8891C97.2603 17.2691 97.4803 17.6891 97.6303 18.1391C97.7803 18.5991 97.8603 19.0891 97.8603 19.5791V21.7691H101.2C103.64 21.7691 105.61 23.7791 105.61 26.2691C105.61 28.7591 103.63 30.7691 101.2 30.7691H97.8603V39.1391H111.65V22.3891C107.28 15.5091 102.3 11.1791 94.8203 6.78906V15.3191C95.2403 15.4591 95.6403 15.6591 96.0103 15.9191" fill="#C40E3E"/>
<path d="M97.8616 55.1298H101.202C103.642 55.1298 105.612 57.1398 105.612 59.6298C105.612 60.2598 105.482 60.8598 105.252 61.3998H111.642V46.7598H97.8516V55.1298H97.8616Z" fill="#C40E3E"/>
<path d="M105.25 61.4002C105.48 60.8602 105.61 60.2602 105.61 59.6302C105.61 57.1502 103.63 55.1302 101.2 55.1302H97.86V46.7602H111.65V39.1202H97.86V30.7502H101.2C103.64 30.7502 105.61 28.7302 105.61 26.2502C105.61 23.7702 103.63 21.7502 101.2 21.7502H97.86V19.5602C97.86 19.0702 97.78 18.5902 97.63 18.1202C97.48 17.6702 97.26 17.2502 96.98 16.8702C96.71 16.4902 96.37 16.1602 96 15.8902C95.64 15.6302 95.24 15.4302 94.81 15.2902C94.81 15.2902 94.77 15.2702 94.75 15.2702C94.13 15.0702 93.45 15.0402 92.81 15.1902C92.59 15.2402 92.37 15.3102 92.16 15.4002C91.73 15.5702 91.34 15.8202 90.98 16.1202C90.63 16.4202 90.33 16.7702 90.08 17.1602C89.83 17.5602 89.65 18.0002 89.53 18.4602C89.44 18.8202 89.4 19.1902 89.4 19.5702V21.7602H86.06C83.62 21.7602 81.64 23.7702 81.64 26.2602C81.64 28.7502 83.62 30.7602 86.06 30.7602H89.4V39.1302H67.92V35.3202C67.92 32.8402 65.94 30.8202 63.51 30.8202C61.08 30.8202 59.1 32.8302 59.1 35.3202V39.1302H56.16C54 39.1302 52.2 40.3902 51.83 42.4302C51.81 42.5502 51.79 42.6702 51.78 42.7902H51.75C51.75 42.8502 51.75 42.9002 51.76 42.9502C51.76 43.0102 51.75 43.0602 51.75 43.1102H51.78C52 45.3502 53.87 46.7702 56.16 46.7702H59.1V50.5802C59.1 53.0602 61.08 55.0802 63.51 55.0802C65.94 55.0802 67.92 53.0702 67.92 50.5802V46.7702H89.4V55.1402H86.06C83.62 55.1402 81.64 57.1502 81.64 59.6402C81.64 60.2702 81.77 60.8702 82 61.4102H105.24" fill="white"/>
<path d="M38.3711 9.00062L48.5011 15.3406V3.64062C44.9611 5.01063 41.3811 6.91062 38.3711 9.00062Z" fill="#231F20"/>
</g>
<defs>
<clipPath id="clip0_5863_27716">
<rect width="137" height="94.19" fill="white"/>
</clipPath>
</defs>
</svg>

