<svg width="253" height="126" viewBox="0 0 253 126" fill="none" xmlns="http://www.w3.org/2000/svg">
<g clip-path="url(#clip0_5863_28064)">
<path d="M12.9618 77.0605L7.99737 87.3771L3.01869 77.0605H0V92.5896H2.39635V80.9879L7.16044 90.9724H8.82L13.5841 80.9879L13.6055 92.5896H15.959V77.0605H12.9618Z" fill="#231F20"/>
<path d="M26.7801 88.4385V87.3483H23.6756C22.059 87.3483 21.3079 87.7959 21.3079 88.9222C21.3079 89.9834 22.152 90.6693 23.5325 90.6693C25.2994 90.6693 26.6585 89.7163 26.7873 88.4312M26.8016 91.1458C25.979 92.1854 24.6628 92.6979 23.0032 92.6979C20.521 92.6979 18.9688 91.1241 18.9688 89.0377C18.9688 86.9513 20.5425 85.5146 23.3036 85.4929H26.773V85.1392C26.773 83.652 25.8431 82.764 24.0333 82.764C22.9317 82.764 21.7943 83.161 20.6498 83.9624L19.634 82.1864C21.2292 81.2118 22.3952 80.6992 24.5698 80.6992C27.5241 80.6992 29.1836 82.2514 29.2051 84.8432L29.2266 92.5824H26.7873V91.1385L26.8016 91.1458Z" fill="#231F20"/>
<path d="M35.1658 83.1394C35.9383 81.5439 37.3189 80.6992 39.1359 80.6992V83.1394C36.8325 83.0094 35.3661 84.4028 35.1658 86.4242V92.5897H32.6836V80.7931H35.1658V83.1466V83.1394Z" fill="#231F20"/>
<path d="M46.7342 94.2053C46.0188 96.068 44.7313 96.9993 43.0002 96.9993C41.9701 96.9993 41.1475 96.6888 40.3463 96.003L41.405 94.0321C41.9415 94.4292 42.3778 94.6096 42.8929 94.6096C43.6511 94.6096 44.252 94.1909 44.6383 93.3029L45.0317 92.4149L40.2891 80.7988H42.8571L46.2835 89.7365L49.4739 80.7988H51.9561L46.7342 94.2126V94.2053Z" fill="#231F20"/>
<path d="M56.0252 76.1367H53.543V92.5898H56.0252V76.1367Z" fill="#231F20"/>
<path d="M66.7606 88.4385V87.3483H63.6561C62.0394 87.3483 61.2812 87.7959 61.2812 88.9222C61.2812 89.9834 62.1253 90.6693 63.4987 90.6693C65.2656 90.6693 66.6247 89.7163 66.7534 88.4312M66.7821 91.1458C65.9594 92.1854 64.6432 92.6979 62.9837 92.6979C60.5015 92.6979 58.9492 91.1241 58.9492 89.0377C58.9492 86.9513 60.5229 85.5146 63.2841 85.4929H66.7534V85.1392C66.7534 83.652 65.8235 82.764 64.0137 82.764C62.9121 82.764 61.7748 83.161 60.6302 83.9624L59.6145 82.1864C61.2097 81.2118 62.3756 80.6992 64.5502 80.6992C67.5045 80.6992 69.1641 82.2514 69.1856 84.8432L69.207 92.5824H66.7749V91.1385L66.7821 91.1458Z" fill="#231F20"/>
<path d="M83.6444 85.2475V92.5897H81.1622V85.9622C81.1622 84.1862 80.1249 83.1033 78.401 83.1033C76.5054 83.125 75.3179 84.475 75.1463 86.3159V92.5897H72.6641V80.7931H75.1463V83.0528C75.9689 81.4139 77.4281 80.6992 79.3738 80.6992C82.0492 80.6992 83.6444 82.4247 83.6444 85.2475Z" fill="#231F20"/>
<path d="M95.5269 86.7349C95.5269 84.4535 94.0819 82.8508 92.0146 82.8508C89.9473 82.8508 88.5023 84.468 88.4809 86.7349C88.5023 88.9729 89.9258 90.5756 92.0146 90.5756C94.1034 90.5756 95.5269 88.9801 95.5269 86.7349ZM98.0019 92.5898H95.5197V90.5756C94.6971 91.9473 93.3165 92.7054 91.4853 92.7054C88.1876 92.7054 85.9844 90.2435 85.9844 86.6482C85.9844 83.0529 88.2091 80.685 91.4423 80.685C93.295 80.685 94.6756 81.4575 95.5197 82.8364V76.1367H98.0019V92.5898Z" fill="#231F20"/>
<path d="M34.688 40.0891L51.1119 50.2974V29.065C50.3322 29.0289 49.5239 29 48.6584 29C35.3747 29 24.2227 35.6347 18.0352 45.1355V59.6177H34.688V40.0891Z" fill="#FFC233"/>
<path d="M51.1451 57.242H62.383L51.1094 50.2969L51.1451 57.242Z" fill="#FFC233"/>
<path d="M34.6875 40.0898V59.6257H37.0767C37.3414 58.1601 38.629 57.2433 40.1741 57.2433H42.2771V54.4926C42.2771 52.7022 43.6935 51.2439 45.4317 51.2439C47.17 51.2439 48.5863 52.695 48.5863 54.4926V57.2433H51.1472L51.1114 50.2981L34.6875 40.0898Z" fill="#231F20"/>
<path d="M62.3843 57.2433H63.9651V51.2006H61.5759C59.8305 51.2006 58.4142 49.7495 58.4142 47.9519C58.4142 46.1543 59.8305 44.7031 61.5759 44.7031H63.9651V43.1221C63.9651 42.855 63.9938 42.5878 64.0581 42.3207C64.1368 41.9886 64.2727 41.671 64.4516 41.3894C64.6232 41.1079 64.845 40.848 65.0954 40.6386C65.3457 40.422 65.6319 40.2487 65.9395 40.1188C66.0897 40.0538 66.247 40.0033 66.4044 39.9672C66.8622 39.8661 67.3415 39.8878 67.7921 40.0249C67.8065 40.0249 67.8208 40.0394 67.8351 40.0394V33.8884C64.5875 32.0619 60.9751 30.6758 57.1266 29.86C55.6459 29.5423 54.1222 29.3113 52.5771 29.1669C52.0978 29.1236 51.6114 29.0803 51.125 29.0586V50.3054L62.3914 57.2505L62.3843 57.2433Z" fill="#231F20"/>
<path d="M61.5668 68.8009H63.956V62.7582H48.5907V65.5089C48.5907 67.2993 47.1744 68.7576 45.4361 68.7576C43.6979 68.7576 42.2815 67.3065 42.2815 65.5089V62.7582H40.1785C38.5404 62.7582 37.2027 61.7403 37.0453 60.1159H37.031C37.031 60.0726 37.031 60.0365 37.0382 60.0004C37.0382 59.9643 37.031 59.921 37.031 59.8849H37.0453C37.0525 59.7983 37.0668 59.7116 37.0811 59.625H18.0391V73.3275H58.6697C58.5052 72.9377 58.4122 72.5045 58.4122 72.0497C58.4122 70.2593 59.8286 68.8009 61.574 68.8009" fill="#C40E3E"/>
<path d="M68.6722 40.4865C68.944 40.6814 69.1801 40.9196 69.3732 41.194C69.5735 41.4683 69.7309 41.7715 69.8382 42.0964C69.9455 42.4285 70.0027 42.7823 70.0027 43.136V44.7171H72.3919C74.1373 44.7171 75.5465 46.1682 75.5465 47.9658C75.5465 49.7635 74.1302 51.2146 72.3919 51.2146H70.0027V57.2573H79.8671V45.1647C76.7411 40.1977 73.1788 37.0717 67.8281 33.9023V40.0605C68.1286 40.1616 68.4147 40.306 68.6794 40.4937" fill="#C40E3E"/>
<path d="M70.0032 68.8005H72.3924C74.1378 68.8005 75.547 70.2516 75.547 72.0492C75.547 72.5041 75.4541 72.9372 75.2895 73.3271H79.8605V62.7578H69.9961V68.8005H70.0032Z" fill="#C40E3E"/>
<path d="M75.2896 73.3277C75.4541 72.9379 75.5471 72.5047 75.5471 72.0499C75.5471 70.2595 74.1308 68.8011 72.3925 68.8011H70.0033V62.7585H79.8677V57.2428H70.0033V51.2001H72.3925C74.1379 51.2001 75.5471 49.7418 75.5471 47.9514C75.5471 46.1609 74.1308 44.7026 72.3925 44.7026H70.0033V43.1216C70.0033 42.7678 69.9461 42.4213 69.8388 42.082C69.7315 41.7571 69.5741 41.4539 69.3738 41.1795C69.1807 40.9052 68.9375 40.6669 68.6728 40.472C68.4153 40.2843 68.1292 40.1399 67.8216 40.0388C67.8216 40.0388 67.793 40.0244 67.7787 40.0244C67.3352 39.88 66.8487 39.8584 66.3909 39.9667C66.2335 40.0027 66.0762 40.0533 65.926 40.1183C65.6184 40.241 65.3394 40.4215 65.0819 40.6381C64.8315 40.8546 64.6169 41.1073 64.4381 41.3889C64.2592 41.6777 64.1305 41.9953 64.0446 42.3274C63.9803 42.5873 63.9516 42.8544 63.9516 43.1288V44.7098H61.5624C59.817 44.7098 58.4007 46.1609 58.4007 47.9586C58.4007 49.7562 59.817 51.2073 61.5624 51.2073H63.9516V57.25H48.5864V54.4994C48.5864 52.709 47.17 51.2507 45.4318 51.2507C43.6935 51.2507 42.2772 52.7018 42.2772 54.4994V57.25H40.1741C38.629 57.25 37.3414 58.1597 37.0768 59.6324C37.0625 59.7191 37.0481 59.8057 37.041 59.8923H37.0195C37.0195 59.9357 37.0195 59.9717 37.0267 60.0078C37.0267 60.0512 37.0195 60.0873 37.0195 60.1234H37.041C37.1984 61.7405 38.536 62.7657 40.1741 62.7657H42.2772V65.5163C42.2772 67.3067 43.6935 68.765 45.4318 68.765C47.17 68.765 48.5864 67.3139 48.5864 65.5163V62.7657H63.9516V68.8084H61.5624C59.817 68.8084 58.4007 70.2595 58.4007 72.0571C58.4007 72.5119 58.4937 72.9451 58.6582 73.3349H75.2824" fill="white"/>
<path d="M27.4453 35.4966L34.6916 40.0737V31.627C32.1593 32.616 29.5985 33.9877 27.4453 35.4966Z" fill="#231F20"/>
</g>
<rect x="114" width="0.818182" height="126" fill="#121111"/>
<g clip-path="url(#clip1_5863_28064)">
<path d="M206.564 27.904V72.3574H199.039V52.7041H177.172L177.093 72.3574H169.629V27.904H177.093V45.441H199.039V27.904H206.564Z" fill="#100F0D"/>
<path d="M168.259 40.2266C167.261 37.4886 165.875 35.2074 164.103 33.3804C162.33 31.5533 160.231 30.1855 157.806 29.2697C155.383 28.3585 152.763 27.9018 149.952 27.9018H131.125V34.8528H138.612H142.951H149.882C167.002 34.8528 164.576 65.1427 151.134 65.1427H138.612V53.5847H131.125V72.3516H149.952C153.293 72.3516 156.195 71.7825 158.663 70.6392C161.128 69.4986 163.185 67.9324 164.835 65.9404C166.486 63.9485 167.719 61.5811 168.533 58.8429C168.571 58.7211 168.606 58.5992 168.639 58.4747V41.3745C168.521 40.9823 168.395 40.5996 168.259 40.2266Z" fill="#100F0D"/>
<path d="M131.105 88.6914V84.6554H131.909L132.865 87.5131C132.953 87.7792 133.017 87.9784 133.057 88.1105C133.103 87.9637 133.175 87.748 133.272 87.4635L134.238 84.6554H134.957V88.6914H134.442V85.3135L133.269 88.6914H132.787L131.62 85.2557V88.6914H131.105Z" fill="#231F20"/>
<path d="M137.899 87.0341H139.267L138.846 85.9162C138.717 85.5768 138.622 85.2978 138.56 85.0795C138.508 85.3382 138.436 85.5953 138.342 85.8502L137.899 87.0341ZM136.734 88.6914L138.284 84.6554H138.86L140.511 88.6914H139.903L139.432 87.4691H137.745L137.301 88.6914H136.734Z" fill="#231F20"/>
<path d="M142.839 86.4367H143.987C144.231 86.4367 144.422 86.4114 144.559 86.3612C144.697 86.3104 144.802 86.2299 144.873 86.1186C144.945 86.0076 144.981 85.887 144.981 85.7567C144.981 85.5659 144.911 85.4088 144.773 85.2857C144.634 85.1629 144.415 85.1015 144.116 85.1015H142.839V86.4367ZM142.305 88.6914V84.6554H144.094C144.454 84.6554 144.727 84.6916 144.915 84.7641C145.102 84.8367 145.251 84.9648 145.363 85.1481C145.475 85.3317 145.531 85.5345 145.531 85.7567C145.531 86.0428 145.438 86.2843 145.253 86.4807C145.068 86.6773 144.781 86.8017 144.394 86.8552C144.536 86.9232 144.643 86.99 144.716 87.056C144.872 87.1993 145.02 87.3781 145.16 87.5928L145.861 88.6914H145.19L144.656 87.8518C144.5 87.6092 144.371 87.4239 144.27 87.2956C144.169 87.1671 144.079 87.0771 143.999 87.0258C143.919 86.9745 143.838 86.9387 143.756 86.9184C143.695 86.9053 143.596 86.8993 143.458 86.8993H142.839V88.6914H142.305Z" fill="#231F20"/>
<path d="M148.763 88.6914V86.9818L147.207 84.6554H147.857L148.652 85.8724C148.799 86.0997 148.936 86.3275 149.063 86.5551C149.184 86.344 149.331 86.1064 149.503 85.8419L150.285 84.6554H150.907L149.297 86.9818V88.6914H148.763Z" fill="#231F20"/>
<path d="M152.723 88.6914V84.6554H153.257V88.2152H155.244V88.6914H152.723Z" fill="#231F20"/>
<path d="M157.961 87.0341H159.33L158.908 85.9162C158.78 85.5768 158.684 85.2978 158.622 85.0795C158.571 85.3382 158.498 85.5953 158.404 85.8502L157.961 87.0341ZM156.797 88.6914L158.347 84.6554H158.922L160.574 88.6914H159.966L159.495 87.4691H157.807L157.364 88.6914H156.797Z" fill="#231F20"/>
<path d="M162.355 88.6914V84.6554H162.903L165.023 87.8242V84.6554H165.535V88.6914H164.987L162.868 85.5197V88.6914H162.355Z" fill="#231F20"/>
<path d="M168.323 88.2152H169.185C169.451 88.2152 169.66 88.1901 169.811 88.1408C169.962 88.0912 170.083 88.0215 170.173 87.9314C170.3 87.8049 170.398 87.6346 170.469 87.421C170.54 87.2074 170.575 86.9479 170.575 86.643C170.575 86.2211 170.506 85.8967 170.367 85.6696C170.229 85.4433 170.06 85.2913 169.862 85.2143C169.719 85.1591 169.489 85.1316 169.171 85.1316H168.323V88.2152ZM167.789 88.6914V84.6554H169.179C169.493 84.6554 169.732 84.6747 169.898 84.7132C170.129 84.7665 170.326 84.8627 170.49 85.0024C170.702 85.1821 170.862 85.4119 170.967 85.6918C171.073 85.9719 171.125 86.2915 171.125 86.6513C171.125 86.9578 171.09 87.2297 171.018 87.4662C170.947 87.7029 170.855 87.8991 170.743 88.054C170.631 88.2093 170.509 88.331 170.375 88.4203C170.242 88.5091 170.082 88.5767 169.894 88.6225C169.705 88.6682 169.489 88.6914 169.245 88.6914H167.789Z" fill="#231F20"/>
<path d="M176.682 88.2152H177.544C177.81 88.2152 178.019 88.1901 178.17 88.1408C178.322 88.0912 178.442 88.0215 178.532 87.9314C178.659 87.8049 178.758 87.6346 178.828 87.421C178.899 87.2074 178.934 86.9479 178.934 86.643C178.934 86.2211 178.865 85.8967 178.727 85.6696C178.588 85.4433 178.419 85.2913 178.221 85.2143C178.078 85.1591 177.848 85.1316 177.53 85.1316H176.682V88.2152ZM176.148 88.6914V84.6554H177.539C177.852 84.6554 178.092 84.6747 178.257 84.7132C178.488 84.7665 178.686 84.8627 178.849 85.0024C179.062 85.1821 179.221 85.4119 179.327 85.6918C179.432 85.9719 179.485 86.2915 179.485 86.6513C179.485 86.9578 179.449 87.2297 179.378 87.4662C179.306 87.7029 179.214 87.8991 179.102 88.054C178.99 88.2093 178.868 88.331 178.735 88.4203C178.602 88.5091 178.441 88.5767 178.253 88.6225C178.065 88.6682 177.849 88.6914 177.605 88.6914H176.148Z" fill="#231F20"/>
<path d="M181.59 88.6914V84.6554H184.508V85.1316H182.124V86.3679H184.357V86.8414H182.124V88.2152H184.602V88.6914H181.59Z" fill="#231F20"/>
<path d="M187.23 86.5743H188.273C188.618 86.5743 188.863 86.5102 189.008 86.3815C189.153 86.2532 189.225 86.0724 189.225 85.8394C189.225 85.6702 189.183 85.5256 189.098 85.4056C189.012 85.2855 188.9 85.206 188.76 85.1674C188.67 85.1434 188.504 85.1316 188.262 85.1316H187.23V86.5743ZM186.695 88.6914V84.6554H188.218C188.486 84.6554 188.69 84.6682 188.832 84.6938C189.03 84.7268 189.196 84.7898 189.33 84.8825C189.464 84.9754 189.572 85.1051 189.654 85.2721C189.735 85.4393 189.776 85.6225 189.776 85.8228C189.776 86.1661 189.667 86.4563 189.449 86.694C189.23 86.9316 188.836 87.0507 188.265 87.0507H187.23V88.6914H186.695Z" fill="#231F20"/>
<path d="M192.118 87.0341H193.486L193.064 85.9162C192.936 85.5768 192.841 85.2978 192.778 85.0795C192.727 85.3382 192.655 85.5953 192.561 85.8502L192.118 87.0341ZM190.953 88.6914L192.503 84.6554H193.079L194.73 88.6914H194.122L193.651 87.4691H191.963L191.52 88.6914H190.953Z" fill="#231F20"/>
<path d="M197.058 86.4367H198.206C198.45 86.4367 198.641 86.4114 198.778 86.3612C198.916 86.3104 199.021 86.2299 199.092 86.1186C199.164 86.0076 199.2 85.887 199.2 85.7567C199.2 85.5659 199.13 85.4088 198.992 85.2857C198.853 85.1629 198.634 85.1015 198.335 85.1015H197.058V86.4367ZM196.523 88.6914V84.6554H198.313C198.673 84.6554 198.946 84.6916 199.134 84.7641C199.32 84.8367 199.47 84.9648 199.582 85.1481C199.694 85.3317 199.75 85.5345 199.75 85.7567C199.75 86.0428 199.658 86.2843 199.472 86.4807C199.287 86.6773 199 86.8017 198.613 86.8552C198.754 86.9232 198.862 86.99 198.935 87.056C199.091 87.1993 199.239 87.3781 199.378 87.5928L200.08 88.6914H199.409L198.875 87.8518C198.719 87.6092 198.59 87.4239 198.489 87.2956C198.388 87.1671 198.298 87.0771 198.218 87.0258C198.138 86.9745 198.057 86.9387 197.974 86.9184C197.914 86.9053 197.815 86.8993 197.677 86.8993H197.058V88.6914H196.523Z" fill="#231F20"/>
<path d="M202.873 88.6914V85.1316H201.543V84.6554H204.742V85.1316H203.407V88.6914H202.873Z" fill="#231F20"/>
<path d="M206.633 88.6914V84.6554H207.437L208.392 87.5131C208.48 87.7792 208.544 87.9784 208.585 88.1105C208.631 87.9637 208.702 87.748 208.799 87.4635L209.766 84.6554H210.484V88.6914H209.97V85.3135L208.797 88.6914H208.315L207.148 85.2557V88.6914H206.633Z" fill="#231F20"/>
<path d="M212.715 88.6914V84.6554H215.633V85.1316H213.249V86.3679H215.482V86.8414H213.249V88.2152H215.727V88.6914H212.715Z" fill="#231F20"/>
<path d="M217.816 88.6914V84.6554H218.364L220.484 87.8242V84.6554H220.996V88.6914H220.448L218.328 85.5197V88.6914H217.816Z" fill="#231F20"/>
<path d="M224.279 88.6914V85.1316H222.949V84.6554H226.148V85.1316H224.813V88.6914H224.279Z" fill="#231F20"/>
<path d="M231.269 86.7332C231.269 87.2198 231.4 87.6031 231.662 87.8828C231.923 88.1625 232.251 88.3025 232.646 88.3025C233.048 88.3025 233.378 88.1614 233.638 87.8784C233.898 87.596 234.028 87.1949 234.028 86.6754C234.028 86.347 233.972 86.0602 233.861 85.8151C233.75 85.5702 233.588 85.3803 233.374 85.2453C233.16 85.1105 232.92 85.0431 232.654 85.0431C232.276 85.0431 231.951 85.1728 231.678 85.4327C231.406 85.6924 231.269 86.1259 231.269 86.7332ZM230.719 86.725C230.719 86.0554 230.899 85.5309 231.258 85.1517C231.618 84.7728 232.082 84.583 232.651 84.583C233.024 84.583 233.36 84.6722 233.659 84.8503C233.958 85.0283 234.186 85.2767 234.343 85.595C234.5 85.9134 234.578 86.2745 234.578 86.6785C234.578 87.0875 234.496 87.454 234.331 87.7769C234.165 88.0999 233.931 88.3444 233.629 88.5103C233.326 88.6765 232.999 88.7598 232.649 88.7598C232.269 88.7598 231.929 88.6676 231.63 88.4844C231.331 88.3008 231.104 88.0501 230.95 87.7328C230.796 87.4151 230.719 87.0794 230.719 86.725Z" fill="#231F20"/>
<path d="M236.652 88.6914V84.6554H239.375V85.1316H237.187V86.3815H239.081V86.8579H237.187V88.6914H236.652Z" fill="#231F20"/>
<path d="M131.074 97.9766V90.9808H132.487V93.7341H135.254V90.9808H136.667V97.9766H135.254V94.9177H132.487V97.9766H131.074Z" fill="#231F20"/>
<path d="M139.77 90.9826H141.182V94.7716C141.182 95.3726 141.2 95.7627 141.235 95.9408C141.295 96.2272 141.439 96.4568 141.667 96.6302C141.894 96.8037 142.205 96.8903 142.599 96.8903C143 96.8903 143.302 96.8085 143.506 96.6448C143.71 96.4807 143.832 96.2794 143.873 96.0408C143.915 95.8021 143.935 95.4064 143.935 94.8528V90.9826H145.348V94.6569C145.348 95.4969 145.31 96.0903 145.233 96.4369C145.157 96.7838 145.016 97.0766 144.811 97.3149C144.606 97.5537 144.332 97.7438 143.988 97.8851C143.644 98.0266 143.196 98.0977 142.642 98.0977C141.974 98.0977 141.468 98.0203 141.122 97.8662C140.777 97.7119 140.505 97.5116 140.304 97.2648C140.104 97.0183 139.972 96.7598 139.908 96.4895C139.816 96.0883 139.77 95.4969 139.77 94.7142V90.9826Z" fill="#231F20"/>
<path d="M148.469 97.9766V90.9808H150.583L151.852 95.7528L153.107 90.9808H155.226V97.9766H153.913V92.4697L152.525 97.9766H151.165L149.781 92.4697V97.9766H148.469Z" fill="#231F20"/>
<path d="M161.989 95.2087L161.025 92.6129L160.08 95.2087H161.989ZM164.59 97.9766H163.053L162.442 96.3876H159.646L159.069 97.9766H157.57L160.295 90.9808H161.789L164.59 97.9766Z" fill="#231F20"/>
<path d="M167.004 97.9766V90.9808H168.378L171.241 95.6527V90.9808H172.554V97.9766H171.136L168.316 93.4146V97.9766H167.004Z" fill="#231F20"/>
<path d="M179.707 95.7011L181.081 95.5679C181.164 96.0291 181.332 96.3676 181.585 96.5839C181.838 96.8003 182.179 96.9085 182.608 96.9085C183.063 96.9085 183.406 96.8124 183.637 96.62C183.867 96.4275 183.983 96.2023 183.983 95.9445C183.983 95.7792 183.934 95.6387 183.837 95.5221C183.74 95.4064 183.571 95.3051 183.329 95.2193C183.163 95.1621 182.786 95.0602 182.198 94.914C181.441 94.7261 180.909 94.4956 180.604 94.222C180.175 93.8371 179.96 93.3677 179.96 92.8143C179.96 92.458 180.061 92.1246 180.263 91.8146C180.465 91.5044 180.756 91.2681 181.136 91.106C181.516 90.9436 181.975 90.8626 182.513 90.8626C183.391 90.8626 184.052 91.0551 184.496 91.4397C184.939 91.825 185.172 92.3385 185.195 92.9812L183.782 93.0433C183.722 92.6837 183.592 92.4252 183.393 92.2676C183.194 92.1102 182.896 92.0317 182.499 92.0317C182.088 92.0317 181.767 92.116 181.535 92.2845C181.385 92.3927 181.31 92.5374 181.31 92.7189C181.31 92.8842 181.38 93.0259 181.52 93.1434C181.699 93.2932 182.131 93.4488 182.818 93.611C183.505 93.7732 184.014 93.9411 184.343 94.1146C184.672 94.288 184.93 94.5249 185.116 94.8259C185.302 95.1263 185.395 95.4976 185.395 95.9399C185.395 96.3408 185.284 96.7161 185.061 97.0661C184.838 97.4159 184.523 97.6759 184.116 97.8461C183.709 98.0165 183.202 98.1016 182.594 98.1016C181.71 98.1016 181.03 97.8973 180.556 97.4883C180.082 97.0795 179.799 96.4839 179.707 95.7011Z" fill="#231F20"/>
<path d="M188.234 97.9766V90.9808H193.422V92.1643H189.647V93.7152H193.159V94.8939H189.647V96.7979H193.555V97.9766H188.234Z" fill="#231F20"/>
<path d="M197.823 93.9394H198.868C199.545 93.9394 199.968 93.9109 200.137 93.8534C200.306 93.7962 200.438 93.6978 200.533 93.5576C200.628 93.4176 200.676 93.2427 200.676 93.033C200.676 92.7973 200.614 92.6075 200.488 92.4626C200.362 92.3178 200.185 92.2263 199.956 92.1882C199.841 92.1723 199.498 92.1643 198.925 92.1643H197.823V93.9394ZM196.41 97.9766V90.9808H199.383C200.131 90.9808 200.674 91.0438 201.013 91.1694C201.351 91.2952 201.623 91.5186 201.826 91.8399C202.03 92.161 202.131 92.5285 202.131 92.9422C202.131 93.4671 201.977 93.9006 201.669 94.2425C201.36 94.5847 200.899 94.8001 200.285 94.8893C200.59 95.0672 200.843 95.2628 201.041 95.4759C201.24 95.6891 201.508 96.0676 201.845 96.612L202.7 97.9766H201.01L199.989 96.454C199.626 95.9104 199.378 95.5675 199.245 95.4258C199.111 95.2845 198.97 95.1875 198.82 95.1348C198.67 95.0823 198.433 95.0563 198.109 95.0563H197.823V97.9766H196.41Z" fill="#231F20"/>
<path d="M206.723 97.9766L204.223 90.9808H205.754L207.525 96.1583L209.238 90.9808H210.736L208.231 97.9766H206.723Z" fill="#231F20"/>
<path d="M213.066 97.9766V90.9808H214.479V97.9766H213.066Z" fill="#231F20"/>
<path d="M221.951 95.4064L223.32 95.8404C223.11 96.604 222.761 97.1711 222.273 97.5416C221.785 97.9123 221.165 98.0977 220.414 98.0977C219.485 98.0977 218.722 97.7802 218.124 97.1455C217.525 96.5108 217.227 95.6434 217.227 94.5427C217.227 93.3783 217.527 92.4738 218.128 91.8297C218.73 91.1853 219.52 90.8635 220.5 90.8635C221.356 90.8635 222.051 91.1162 222.585 91.6223C222.903 91.9212 223.142 92.3507 223.301 92.9107L221.903 93.2445C221.82 92.8818 221.648 92.5956 221.385 92.3857C221.123 92.1758 220.804 92.0707 220.429 92.0707C219.91 92.0707 219.489 92.257 219.166 92.6288C218.843 93.0011 218.682 93.6042 218.682 94.4375C218.682 95.3221 218.841 95.9521 219.159 96.3271C219.477 96.7026 219.891 96.8903 220.4 96.8903C220.775 96.8903 221.098 96.771 221.369 96.5326C221.639 96.2938 221.833 95.9183 221.951 95.4064Z" fill="#231F20"/>
<path d="M226.184 97.9766V90.9808H231.371V92.1643H227.596V93.7152H231.108V94.8939H227.596V96.7979H231.504V97.9766H226.184Z" fill="#231F20"/>
<path d="M233.996 95.7011L235.37 95.5679C235.453 96.0291 235.621 96.3676 235.874 96.5839C236.127 96.8003 236.468 96.9085 236.897 96.9085C237.352 96.9085 237.695 96.8124 237.925 96.62C238.156 96.4275 238.272 96.2023 238.272 95.9445C238.272 95.7792 238.223 95.6387 238.126 95.5221C238.029 95.4064 237.86 95.3051 237.618 95.2193C237.452 95.1621 237.076 95.0602 236.487 94.914C235.73 94.7261 235.199 94.4956 234.893 94.222C234.464 93.8371 234.249 93.3677 234.249 92.8143C234.249 92.458 234.35 92.1246 234.552 91.8146C234.754 91.5044 235.045 91.2681 235.425 91.106C235.805 90.9436 236.264 90.8626 236.802 90.8626C237.68 90.8626 238.341 91.0551 238.785 91.4397C239.228 91.825 239.461 92.3385 239.484 92.9812L238.071 93.0433C238.011 92.6837 237.881 92.4252 237.682 92.2676C237.483 92.1102 237.185 92.0317 236.787 92.0317C236.377 92.0317 236.056 92.116 235.823 92.2845C235.674 92.3927 235.599 92.5374 235.599 92.7189C235.599 92.8842 235.669 93.0259 235.809 93.1434C235.987 93.2932 236.42 93.4488 237.107 93.611C237.794 93.7732 238.303 93.9411 238.632 94.1146C238.961 94.288 239.219 94.5249 239.405 94.8259C239.591 95.1263 239.684 95.4976 239.684 95.9399C239.684 96.3408 239.572 96.7161 239.35 97.0661C239.128 97.4159 238.812 97.6759 238.405 97.8461C237.998 98.0165 237.491 98.1016 236.883 98.1016C235.999 98.1016 235.319 97.8973 234.845 97.4883C234.371 97.0795 234.088 96.4839 233.996 95.7011Z" fill="#231F20"/>
<path d="M239.264 53.1877C238.232 51.6473 237.005 50.414 235.585 49.4904C234.166 48.5688 231.199 47.2429 227.999 46.4996C225.282 45.8185 223.029 45.5535 221.347 45.1122C219.665 44.6712 217.292 43.99 216.339 43.549C215.386 43.1079 214.748 42.6275 214.423 42.1055C214.098 41.5859 213.937 40.9046 213.937 40.0618C213.937 39.1402 214.138 38.3782 214.544 37.7777C214.951 37.1772 215.468 36.676 216.096 36.2743C216.725 35.8747 217.491 35.5312 218.247 35.3311C218.838 35.1747 219.864 34.9941 220.734 34.9271C221.983 34.8308 223.167 34.8277 224.173 34.9462C225.316 35.081 226.389 35.3834 227.563 35.9662C228.532 36.4474 229.733 37.2364 230.431 38.0448C230.853 38.534 231.845 39.2572 231.826 41.7398L239.358 41.7352C239.358 39.2503 238.879 37.1347 237.928 35.3912C236.972 33.6475 235.687 32.2157 234.064 31.0933C232.442 29.9709 230.587 29.1602 228.498 28.6568C226.41 28.158 224.23 27.9062 221.961 27.9062C220.015 27.9062 218.068 28.1672 216.12 28.6869C214.174 29.2088 212.431 30.0101 210.891 31.0933C210.398 31.4396 209.938 31.8115 209.506 32.2134C209.506 32.2134 208.471 33.0894 207.551 34.6393V45.3825C209.024 48.0407 211.143 48.8713 211.215 48.9083C213.014 49.8268 214.523 50.4445 216.093 50.9392C217.89 51.5054 219.919 52.0773 221.548 52.4453C222.865 52.7429 225.423 53.0785 228.668 54.3842C233.113 56.1725 233.971 60.449 231.903 62.6982C227.174 67.8425 220.135 66.0602 218.961 65.7581C210.981 63.7053 208.96 58.8659 207.551 57.608V66.9942C207.656 67.075 211.931 71.0544 215.786 71.9472C218.053 72.4722 220.358 72.8203 222.751 72.8203C225.711 72.8203 228.316 72.4785 230.568 71.7973C232.818 71.1158 234.704 70.1644 236.225 68.9403C237.746 67.7188 238.891 66.2661 239.662 64.5825C240.43 62.8989 240.816 61.0745 240.816 59.1114C240.816 56.7073 240.3 54.7326 239.264 53.1877Z" fill="#100F0D"/>
<path d="M137.127 80.7345L134.098 78.7204V80.7871H137.127V80.7345Z" fill="#100F0D"/>
<path d="M140.125 80.7773V78.7175L137.105 76.7099V80.7251L137.185 80.7773H140.125Z" fill="#100F0D"/>
<path d="M143.224 80.7773L143.145 80.7251V80.7773H143.224Z" fill="#100F0D"/>
<path d="M134.096 74.6923H131.066V76.7064L134.096 78.7207V74.6923Z" fill="#100F0D"/>
<path d="M137.127 74.6928H134.098L137.127 76.707V74.6928Z" fill="#100F0D"/>
<path d="M143.186 80.7344V74.6919H140.156V78.7201L143.186 80.7344Z" fill="#100F0D"/>
<path d="M149.244 80.7871V74.692H146.215V80.7871H149.244Z" fill="#100F0D"/>
<path d="M137.127 80.7344V76.7062L134.098 74.6919V78.7203L137.127 80.7344Z" fill="#E6A611"/>
<path d="M134.096 78.7204L131.066 76.7061V80.7871H134.096V78.7204Z" fill="#E6A611"/>
<path d="M140.154 78.7207V74.6925H137.125V76.7068L140.154 78.7207Z" fill="#E6A611"/>
<path d="M143.145 80.7773V80.7251L140.125 78.7175V80.7773H143.145Z" fill="#E6A611"/>
<path d="M137.185 80.7773L137.105 80.7251V80.7773H137.185Z" fill="#E6A611"/>
<path d="M143.263 80.7871H146.213V74.692H143.184V80.7345L143.263 80.7871Z" fill="#E6A611"/>
<path d="M166.815 80.7249C166.815 80.7425 166.814 80.7601 166.812 80.7773H167.298V80.7249H166.815Z" fill="white"/>
<path d="M149.727 80.7344C149.727 80.5318 149.81 80.3308 149.954 80.1876C150.098 80.0443 150.299 79.9611 150.502 79.9611H151.181V79.212C151.181 79.0094 151.264 78.808 151.408 78.665C151.552 78.5218 151.753 78.4385 151.957 78.4385C152.16 78.4385 152.361 78.5218 152.505 78.665C152.648 78.808 152.732 79.0094 152.732 79.212V79.9611H157.555V78.2453H156.803C156.601 78.2453 156.399 78.1618 156.255 78.0184C156.111 77.8752 156.028 77.6741 156.028 77.4716C156.028 77.269 156.111 77.0679 156.255 76.9247C156.399 76.7815 156.601 76.6982 156.803 76.6982H157.555V76.3114C157.555 76.1092 157.638 75.9078 157.782 75.7648C157.926 75.6216 158.127 75.5381 158.33 75.5381V74.6922H149.242V80.7344H149.727Z" fill="white"/>
<path d="M158.789 75.7713C158.932 75.9135 159.015 76.1144 159.015 76.3162V76.7014H159.764C159.966 76.7014 160.168 76.7845 160.31 76.9276C160.454 77.0702 160.537 77.2707 160.537 77.4725C160.537 77.6743 160.454 77.8748 160.31 78.0174C160.168 78.1604 159.966 78.2435 159.764 78.2435H159.015V79.9537H163.822V79.207C163.822 79.0052 163.906 78.8045 164.049 78.6621C164.192 78.5191 164.393 78.4361 164.595 78.4361C164.798 78.4361 164.999 78.5191 165.142 78.6621C165.285 78.8045 165.368 79.0052 165.368 79.207V79.9537H166.044C166.247 79.9537 166.448 80.0367 166.591 80.1795C166.734 80.3222 166.818 80.5228 166.818 80.7246H167.301V74.7021H158.242V75.5451C158.445 75.5451 158.646 75.6282 158.789 75.7713Z" fill="#961A31"/>
<path d="M158.243 80.7773V80.7249H149.668C149.668 80.7425 149.669 80.7601 149.671 80.7773H158.243Z" fill="white"/>
<path d="M166.16 79.9611H165.481V79.212C165.481 79.0094 165.398 78.808 165.254 78.665C165.111 78.5218 164.909 78.4385 164.706 78.4385C164.503 78.4385 164.301 78.5218 164.158 78.665C164.014 78.808 163.93 79.0094 163.93 79.212V79.9611H159.108V78.2453H159.859C160.062 78.2453 160.264 78.1618 160.407 78.0184C160.551 77.8752 160.634 77.6741 160.634 77.4716C160.634 77.269 160.551 77.0679 160.407 76.9247C160.264 76.7815 160.062 76.6982 159.859 76.6982H159.108V76.3114C159.108 76.1092 159.024 75.9078 158.88 75.7648C158.737 75.6216 158.535 75.5381 158.332 75.5381V80.7344H166.935C166.935 80.5318 166.852 80.3308 166.708 80.1876C166.565 80.0443 166.363 79.9611 166.16 79.9611Z" fill="white"/>
<path d="M158.33 75.5381C158.127 75.5381 157.925 75.6216 157.782 75.7648C157.638 75.9078 157.555 76.1092 157.555 76.3114V76.6982H156.803C156.6 76.6982 156.398 76.7815 156.255 76.9247C156.111 77.0679 156.028 77.269 156.028 77.4716C156.028 77.6741 156.111 77.8752 156.255 78.0184C156.398 78.1618 156.6 78.2453 156.803 78.2453H157.555V79.9611H152.732V79.212C152.732 79.0094 152.648 78.808 152.504 78.665C152.361 78.5218 152.159 78.4385 151.956 78.4385C151.753 78.4385 151.551 78.5218 151.408 78.665C151.264 78.808 151.181 79.0094 151.181 79.212V79.9611H150.502C150.299 79.9611 150.097 80.0443 149.954 80.1876C149.81 80.3308 149.727 80.5318 149.727 80.7344H158.33V75.5381Z" fill="#961A31"/>
<path d="M173.107 80.7678L170.078 78.7537V80.8203H173.107V80.7678Z" fill="#100F0D"/>
<path d="M176.105 80.8184V78.7539L173.086 76.7422V80.7657L173.165 80.8184H176.105Z" fill="#100F0D"/>
<path d="M179.204 80.8105L179.125 80.7581V80.8105H179.204Z" fill="#100F0D"/>
<path d="M170.076 74.6917H167.047V76.7226L170.076 78.7539V74.6917Z" fill="#100F0D"/>
<path d="M173.107 74.724H170.078L173.107 76.7383V74.724Z" fill="#100F0D"/>
<path d="M179.166 80.7676V74.7251H176.137V78.7533L179.166 80.7676Z" fill="#100F0D"/>
<path d="M185.225 80.8203V74.7254H182.195V80.8203H185.225Z" fill="#100F0D"/>
<path d="M173.107 80.7676V76.7394L170.078 74.7251V78.7535L173.107 80.7676Z" fill="#E6A611"/>
<path d="M170.076 78.7537L167.047 76.7395V80.8203H170.076V78.7537Z" fill="#E6A611"/>
<path d="M176.135 78.7539V74.7257H173.105V76.74L176.135 78.7539Z" fill="#E6A611"/>
<path d="M179.125 80.8105V80.7581L176.105 78.7507V80.8105H179.125Z" fill="#E6A611"/>
<path d="M173.181 80.8223L173.086 80.7579V80.8223H173.181Z" fill="#E6A611"/>
<path d="M179.243 80.8203H182.194V74.7254H179.164V80.7678L179.243 80.8203Z" fill="#E6A611"/>
<path d="M202.8 80.7581C202.8 80.7757 202.798 80.7934 202.797 80.8105H203.283V80.7581H202.8Z" fill="white"/>
<path d="M185.707 80.7676C185.707 80.565 185.791 80.3637 185.935 80.2205C186.078 80.0773 186.28 79.9942 186.483 79.9942H187.161V79.2452C187.161 79.0425 187.245 78.8412 187.389 78.6981C187.532 78.5549 187.734 78.4716 187.937 78.4716C188.14 78.4716 188.342 78.5549 188.485 78.6981C188.629 78.8412 188.713 79.0425 188.713 79.2452V79.9942H193.535V78.2782H192.784C192.581 78.2782 192.379 78.1949 192.236 78.0515C192.092 77.9083 192.009 77.7073 192.009 77.5047C192.009 77.3021 192.092 77.1011 192.236 76.9578C192.379 76.8144 192.581 76.7313 192.784 76.7313H193.535V76.3446C193.535 76.1424 193.619 75.9408 193.762 75.7979C193.906 75.6545 194.108 75.5712 194.311 75.5712V74.7253H185.223V80.7676H185.707Z" fill="white"/>
<path d="M194.769 75.8045C194.913 75.9467 194.996 76.1476 194.996 76.3494V76.7346H195.744C195.947 76.7346 196.148 76.8177 196.291 76.9606C196.434 77.1034 196.518 77.3037 196.518 77.5057C196.518 77.7075 196.434 77.908 196.291 78.0506C196.148 78.1936 195.947 78.2767 195.744 78.2767H194.996V79.9869H199.803V79.2402C199.803 79.0384 199.886 78.8377 200.029 78.6953C200.172 78.5523 200.373 78.4694 200.576 78.4694C200.778 78.4694 200.979 78.5523 201.122 78.6953C201.266 78.8377 201.349 79.0384 201.349 79.2402V79.9869H202.025C202.227 79.9869 202.429 80.0699 202.572 80.2127C202.715 80.3554 202.798 80.556 202.798 80.7578H203.281V74.7353H194.223V75.5783C194.425 75.5783 194.626 75.6614 194.769 75.8045Z" fill="#961A31"/>
<path d="M194.223 80.8105H202.795C202.797 80.7934 202.798 80.7757 202.798 80.7581H194.223V80.8105Z" fill="#961A31"/>
<path d="M194.224 80.8105V80.7581H185.648C185.648 80.7757 185.65 80.7934 185.651 80.8105H194.224Z" fill="white"/>
<path d="M202.14 79.9942H201.462V79.2452C201.462 79.0425 201.378 78.8412 201.235 78.6981C201.091 78.5549 200.889 78.4716 200.686 78.4716C200.483 78.4716 200.282 78.5549 200.138 78.6981C199.995 78.8412 199.911 79.0425 199.911 79.2452V79.9942H195.088V78.2782H195.839C196.042 78.2782 196.244 78.1949 196.388 78.0515C196.531 77.9083 196.615 77.7073 196.615 77.5047C196.615 77.3021 196.531 77.1011 196.388 76.9578C196.244 76.8144 196.042 76.7313 195.839 76.7313H195.088V76.3446C195.088 76.1424 195.005 75.9408 194.861 75.7979C194.717 75.6545 194.516 75.5712 194.312 75.5712V80.7676H202.916C202.916 80.565 202.832 80.3637 202.689 80.2205C202.545 80.0773 202.344 79.9942 202.14 79.9942Z" fill="white"/>
<path d="M194.31 75.5712C194.107 75.5712 193.906 75.6545 193.762 75.7979C193.618 75.9408 193.535 76.1424 193.535 76.3446V76.7313H192.784C192.581 76.7313 192.379 76.8144 192.235 76.9578C192.092 77.1011 192.008 77.3021 192.008 77.5047C192.008 77.7073 192.092 77.9083 192.235 78.0515C192.379 78.1949 192.581 78.2782 192.784 78.2782H193.535V79.9942H188.712V79.2452C188.712 79.0425 188.628 78.8412 188.485 78.6981C188.341 78.5549 188.14 78.4716 187.937 78.4716C187.734 78.4716 187.532 78.5549 187.388 78.6981C187.245 78.8412 187.161 79.0425 187.161 79.2452V79.9942H186.482C186.28 79.9942 186.078 80.0773 185.934 80.2205C185.791 80.3637 185.707 80.565 185.707 80.7676H194.31V75.5712Z" fill="#961A31"/>
<path d="M167.044 80.6864H149.242V80.7871H167.044V80.6864Z" fill="#961A31"/>
<path d="M203.284 80.7176H185.223V80.8184H203.284V80.7176Z" fill="#961A31"/>
<path d="M158.258 74.7656H149.23V74.7036H158.258V74.7656Z" fill="#961A31"/>
<path d="M194.238 74.7969H185.211V74.7348H194.238V74.7969Z" fill="#961A31"/>
<path d="M209.307 80.7991L206.277 78.785V80.8516H209.307V80.7991Z" fill="#100F0D"/>
<path d="M212.309 80.8496V78.7852L209.289 76.7734V80.797L209.368 80.8496H212.309Z" fill="#100F0D"/>
<path d="M215.407 80.8418L215.328 80.7891V80.8418H215.407Z" fill="#100F0D"/>
<path d="M206.279 74.7229H203.25V76.7538L206.279 78.7852V74.7229Z" fill="#100F0D"/>
<path d="M209.307 74.7553H206.277L209.307 76.7695V74.7553Z" fill="#100F0D"/>
<path d="M215.365 80.7988V74.7564H212.336V78.7845L215.365 80.7988Z" fill="#100F0D"/>
<path d="M221.424 80.8516V74.7567H218.395V80.8516H221.424Z" fill="#100F0D"/>
<path d="M209.307 80.7988V76.7706L206.277 74.7564V78.7847L209.307 80.7988Z" fill="#E6A611"/>
<path d="M206.279 78.785L203.25 76.7708V80.8516H206.279V78.785Z" fill="#E6A611"/>
<path d="M212.338 78.7832V74.755H209.309V76.7693L212.338 78.7832Z" fill="#E6A611"/>
<path d="M215.328 80.8418V80.7891L212.309 78.7817V80.8418H215.328Z" fill="#E6A611"/>
<path d="M209.383 80.8535L209.289 80.7892V80.8535H209.383Z" fill="#E6A611"/>
<path d="M215.446 80.8516H218.396V74.7567H215.367V80.7991L215.446 80.8516Z" fill="#E6A611"/>
<path d="M238.999 80.7891C238.999 80.8067 238.997 80.8244 238.996 80.8418H239.482V80.7891H238.999Z" fill="white"/>
<path d="M221.91 80.7988C221.91 80.5963 221.994 80.395 222.138 80.2518C222.281 80.1086 222.483 80.0255 222.686 80.0255H223.364V79.2763C223.364 79.0737 223.448 78.8725 223.592 78.7294C223.735 78.5862 223.937 78.5029 224.14 78.5029C224.343 78.5029 224.545 78.5862 224.688 78.7294C224.832 78.8725 224.916 79.0737 224.916 79.2763V80.0255H229.738V78.3095H228.987C228.784 78.3095 228.582 78.2262 228.439 78.0828C228.295 77.9396 228.212 77.7386 228.212 77.536C228.212 77.3334 228.295 77.1324 228.439 76.9892C228.582 76.8457 228.784 76.7626 228.987 76.7626H229.738V76.3759C229.738 76.1737 229.822 75.9721 229.965 75.8292C230.109 75.6858 230.311 75.6025 230.514 75.6025V74.7566H221.426V80.7988H221.91Z" fill="white"/>
<path d="M230.972 75.8355C231.115 75.978 231.199 76.1788 231.199 76.3806V76.7659H231.948C232.15 76.7659 232.351 76.849 232.494 76.9918C232.637 77.1346 232.721 77.3349 232.721 77.5369C232.721 77.7387 232.637 77.9392 232.494 78.0818C232.351 78.2249 232.15 78.3078 231.948 78.3078H231.199V80.0182H236.006V79.2714C236.006 79.0696 236.089 78.869 236.232 78.7263C236.375 78.5837 236.576 78.5006 236.779 78.5006C236.981 78.5006 237.182 78.5837 237.325 78.7263C237.468 78.869 237.552 79.0696 237.552 79.2714V80.0182H238.228C238.43 80.0182 238.632 80.1011 238.774 80.2439C238.918 80.3868 239.001 80.587 239.001 80.7891H239.484V74.7665H230.426V75.6096C230.628 75.6096 230.829 75.6927 230.972 75.8355Z" fill="#961A31"/>
<path d="M230.426 80.8418H238.998C239 80.8244 239.001 80.8067 239.001 80.7891H230.426V80.8418Z" fill="#961A31"/>
<path d="M230.423 80.8418V80.7891H221.848C221.848 80.8067 221.849 80.8244 221.85 80.8418H230.423Z" fill="white"/>
<path d="M238.339 80.0255H237.661V79.2763C237.661 79.0737 237.577 78.8725 237.434 78.7294C237.29 78.5862 237.088 78.5029 236.885 78.5029C236.682 78.5029 236.481 78.5862 236.337 78.7294C236.193 78.8725 236.11 79.0737 236.11 79.2763V80.0255H231.287V78.3095H232.038C232.241 78.3095 232.443 78.2262 232.586 78.0828C232.73 77.9396 232.814 77.7386 232.814 77.536C232.814 77.3334 232.73 77.1324 232.586 76.9892C232.443 76.8457 232.241 76.7626 232.038 76.7626H231.287V76.3759C231.287 76.1737 231.204 75.9721 231.06 75.8292C230.916 75.6858 230.715 75.6025 230.512 75.6025V80.7988H239.115C239.115 80.5963 239.031 80.395 238.888 80.2518C238.744 80.1086 238.543 80.0255 238.339 80.0255Z" fill="white"/>
<path d="M230.514 75.6025C230.311 75.6025 230.109 75.6858 229.965 75.8292C229.821 75.9721 229.738 76.1737 229.738 76.3759V76.7626H228.987C228.784 76.7626 228.582 76.8457 228.439 76.9892C228.295 77.1324 228.211 77.3334 228.211 77.536C228.211 77.7386 228.295 77.9396 228.439 78.0828C228.582 78.2262 228.784 78.3095 228.987 78.3095H229.738V80.0255H224.915V79.2763C224.915 79.0737 224.832 78.8725 224.688 78.7294C224.545 78.5862 224.343 78.5029 224.14 78.5029C223.937 78.5029 223.735 78.5862 223.591 78.7294C223.448 78.8725 223.364 79.0737 223.364 79.2763V80.0255H222.686C222.483 80.0255 222.281 80.1086 222.137 80.2518C221.994 80.395 221.91 80.5963 221.91 80.7988H230.514V75.6025Z" fill="#961A31"/>
<path d="M239.483 80.7489H221.422V80.8496H239.483V80.7489Z" fill="#961A31"/>
<path d="M230.441 74.8281H221.414V74.7661H230.441V74.8281Z" fill="#961A31"/>
<path d="M154.215 48.6008C153.379 49.231 152.83 50.2953 152.83 51.503V52.7988H149.782V51.1194C149.782 48.9237 148.33 47.0807 146.371 46.5741C146.956 44.9799 147.823 43.7541 149.934 43.7687C153.056 43.7905 154.131 46.1318 154.215 48.6008Z" fill="#231F20"/>
<path d="M144.603 46.4882C142.783 46.7748 141.32 48.226 140.902 50.0672L137.875 50.0762L137.896 48.8783C137.896 47.6227 137.218 46.5315 136.223 45.9798C136.89 44.4418 138.108 43.2493 140.238 43.2493C141.343 43.2493 142.178 43.5847 142.881 44.0176C143.176 44.1995 143.25 44.8201 143.533 45.24C143.816 45.6599 144.187 46.0426 144.603 46.4882Z" fill="#231F20"/>
<path d="M142.59 40.654C142.59 41.9637 141.529 43.0254 140.219 43.0254C138.909 43.0254 137.848 41.9637 137.848 40.654C137.848 39.3444 138.909 38.2827 140.219 38.2827C141.529 38.2827 142.59 39.3444 142.59 40.654Z" fill="#231F20"/>
<path d="M152.364 41.2848C152.364 42.5265 151.357 43.5332 150.116 43.5332C148.874 43.5332 147.867 42.5265 147.867 41.2848C147.867 40.0431 148.874 39.0365 150.116 39.0365C151.357 39.0365 152.364 40.0431 152.364 41.2848Z" fill="#231F20"/>
<path d="M140.781 57.4137V51.1195C140.781 50.747 140.823 50.3846 140.902 50.0373C141.32 48.1959 142.783 46.7752 144.603 46.4885C144.825 46.4537 145.051 46.4353 145.282 46.4353C145.658 46.4353 146.023 46.4836 146.372 46.5741C148.331 47.0808 149.783 48.9237 149.783 51.1195V52.7988V57.4141" stroke="#231F20" stroke-width="4.50265"/>
<path d="M147.633 43.9294C147.633 45.2282 146.58 46.2812 145.281 46.2812C143.983 46.2812 142.93 45.2282 142.93 43.9294C142.93 42.6305 143.983 41.5778 145.281 41.5778C146.58 41.5778 147.633 42.6305 147.633 43.9294Z" stroke="#231F20" stroke-width="4.50265"/>
<path d="M136.866 42.6432C136.866 43.8154 135.915 44.7656 134.743 44.7656C133.571 44.7656 132.621 43.8154 132.621 42.6432C132.621 41.471 133.571 40.5209 134.743 40.5209C135.915 40.5209 136.866 41.471 136.866 42.6432Z" stroke="#231F20" stroke-width="4.50265"/>
<path d="M131.59 52.543V48.8792C131.59 47.0663 133.002 45.5972 134.743 45.5972C135.279 45.5972 135.782 45.7358 136.224 45.9807C137.219 46.5323 137.897 47.6235 137.897 48.8792V50.056V52.543" stroke="#231F20" stroke-width="4.50265"/>
<path d="M158.186 45.0182C158.186 46.1904 157.236 47.1406 156.064 47.1406C154.892 47.1406 153.941 46.1904 153.941 45.0182C153.941 43.8462 154.892 42.8959 156.064 42.8959C157.236 42.8959 158.186 43.8462 158.186 45.0182Z" stroke="#231F20" stroke-width="4.50265"/>
<path d="M152.832 55.416V51.5039C152.832 50.2963 153.381 49.2319 154.218 48.6018C154.722 48.2219 155.33 47.9998 155.985 47.9998C157.727 47.9998 159.138 49.5685 159.138 51.5039V55.416" stroke="#231F20" stroke-width="4.50265"/>
</g>
<defs>
<clipPath id="clip0_5863_28064">
<rect width="98" height="68" fill="white" transform="translate(0 29)"/>
</clipPath>
<clipPath id="clip1_5863_28064">
<rect width="110" height="70.2009" fill="white" transform="translate(130.816 27.9004)"/>
</clipPath>
</defs>
</svg>

